<svg xmlns="http://www.w3.org/2000/svg" width="849" height="438" fill="none"><path fill="#323237" d="M0 27h843v411H0z"/><path fill="#0078D4" d="M491.82 262.32c2.47-11.92-9.14-27.06-52.38-43.82 16.45 1.53 29.35 2.97 39.32 4.26-6.22-2.9-11.32-6.9-12.7-12.2-8.55-33.15-88.44-32.03-13.66-47.72 74.77-15.7 26.38-8.9 1.57-35.53-24.05-25.78 19.14 5.08 72.32-15.6 20.43-12.77 37.17-16.52 5.13-2.16-1.72.77-3.43 1.5-5.14 2.15-14.96 9.34-31.9 23.52-33.13 38.97-2.9 36.56 47.07 15 97.6 28.13 50.54 13.13-23.03 52.53.4 69.6 20.15 14.7 40.98-3.98 41.98-.78 5.5-10.1 18.84-29.52 37.52-34.58 29.5-7.98 66.3 8.43 75.5 30.58 9.22 22.15-17.22 61.55-57.86 49.6-40.63-11.93-12.7-4.45-52.63-16.6-39.92-12.15-12.88 24.6-56.1.15-36.25-20.52-42.7-31.82-87.75-14.45-5.53 26.75-82 37.23-30.6 13.27 11.93-5.58 21.97-9.96 30.6-13.28z" style="mix-blend-mode:screen" opacity=".5" filter="url(#a)"/><path fill="#0078D4" d="M425.6 200.75c1.1-7.4 4.1-8.7 11-6.2 13.6 5.1 28.3 2.7 9.1-14.5-19.1-17.2-61.9-17.8-84.1-32.4-26.9-17.7 38.6-14.6 51.5-30 3.7-4.4-.4-8.9-9.6-12.3-18.4-6.8-28.7-3.4-36.6-10.8-5.6-5.2-4.6-15.6.1-20.3 9.9-9.6 14.7 8.8 34.5 15.8 39.3 13.9 49.6 11 52.2 24.2 2.4 11.9-17.8 15.1-30.9 18.2-12 2.9-16.5 7.1-11.2 11.9 17.8 16 46.3 25 73.8 35 18.8 6.8 59.1 15.5 78.1 14.8 72.3-1.2-40.9 39.4-18.7 60.7 20.6 17.4 37.8 19.4 46.1 14.1 7.9-6 27.5-17.8 48.6-16.4 33.3 2.3 55.2 23.1 66.3 39.7 2.8 4.2 7.4 23.9 1.7 32.6-7.6 11.6-20.9 24.7-46.7 12.2-26.1-12.6-30.8-26.3-71.4-46.6-40.6-20.3-29.4 23-71.1-7.4-35-25.6-17.9-53.4-66.9-50.2-37.5 3-70.1-30.5-41.8-25.8 15.8 3.4 14.6.2 16-6.3z" opacity=".5" filter="url(#b)"/><path fill="url(#c)" d="M547.4 263.55l-6.9-4.2-11.7 6.7 7.3 4 11.3-6.5z" opacity=".15"/><path fill="url(#d)" d="M574.7 247.65l-6.9-4.2-11.7 6.7 7.3 4 11.3-6.5z" opacity=".15"/><path fill="url(#e)" d="M600.5 232.15l-6.9-4.2-11.7 6.7 7.3 4 11.3-6.5z" opacity=".15"/><path fill="url(#f)" d="M627.8 247.45l-6.9-4.2-11.7 6.7 7.3 4 11.3-6.5z" opacity=".15"/><path fill="url(#g)" d="M600.5 263.15l-6.9-4.2-11.7 6.7 7.3 4 11.3-6.5z" opacity=".15"/><path fill="url(#h)" d="M574.4 278.65l-6.9-4.2-11.7 6.7 7.3 4 11.3-6.5z" opacity=".15"/><path fill="url(#i)" d="M627.7 278.75l-6.9-4.2-11.7 6.7 7.3 4 11.3-6.5z" opacity=".15"/><path fill="url(#j)" d="M654.3 262.75l-6.9-4.2-11.7 6.7 7.3 4 11.3-6.5z" opacity=".15"/><path fill="url(#k)" d="M521.1 248.55l-6.9-4.2-11.7 6.7 7.3 4 11.3-6.5z" opacity=".15"/><path fill="url(#l)" d="M547.2 232.85l-6.9-4.2-11.7 6.7 7.3 4 11.3-6.5z" opacity=".15"/><path fill="url(#m)" d="M574.8 216.95l-6.9-4.2-11.7 6.7 7.3 4 11.3-6.5z" opacity=".15"/><path fill="url(#n)" d="M562.4 209.55l-6.9-4.2-99.7 57.9 7.3 4 99.3-57.7z" opacity=".15"/><path fill="url(#o)" d="M456.3 213.45c-.8-.4-2-.4-2.8 0-.4.3-.6.6-.6.9l-8.7-5.4c.2-.1.4-.1.5-.2.8-.4.8-1.2 0-1.6-.8-.4-2-.4-2.8 0-.6.3-.7.8-.4 1.2l-8.4 4.8c-.7-.2-1.6-.1-2.2.2-.8.4-.8 1.2 0 1.6.3.2.7.3 1.2.3l9.3 5.4c.1.2.3.4.5.5.3.1.6.2.9.3.7.1 1.4 0 1.9-.3s.7-.7.5-1.1l8.7-5c.8.2 1.7.2 2.3-.2.8-.2.8-1 .1-1.4z" opacity=".15"/><path fill="url(#p)" d="M483.2 196.35c-.8-.4-2-.4-2.8 0-.4.3-.6.6-.6.9l-8.7-5.4c.2-.1.4-.1.5-.2.8-.4.8-1.2 0-1.6-.8-.4-2-.4-2.8 0-.6.3-.7.8-.4 1.2l-8.4 4.8c-.7-.2-1.6-.1-2.2.2-.8.4-.8 1.2 0 1.6.3.2.7.3 1.2.3l9.3 5.4c.1.2.3.4.5.5.3.1.6.2.9.3.7.1 1.4 0 1.9-.3s.7-.7.5-1.1l8.7-5c.8.2 1.7.2 2.3-.2.9-.2.9-.9.1-1.4z" opacity=".15"/><path fill="url(#q)" d="M509.5 181.05c-.8-.4-2-.4-2.8 0-.4.3-.6.6-.6.9l-8.7-5.4c.2-.1.4-.1.5-.2.8-.4.8-1.2 0-1.6-.8-.4-2-.4-2.8 0-.6.3-.7.8-.4 1.2l-8.4 4.8c-.7-.2-1.6-.1-2.2.2-.8.4-.8 1.2 0 1.6.3.2.7.3 1.2.3l9.3 5.4c.1.2.3.4.5.5.3.1.6.2.9.3.7.1 1.4 0 1.9-.3s.7-.7.5-1.1l8.7-5c.8.2 1.7.2 2.3-.2.8-.2.8-1 .1-1.4z" opacity=".15"/><path fill="url(#r)" d="M481.5 163.95c-.8-.4-2-.4-2.8 0-.4.3-.6.6-.6.9l-8.7-5.4c.2-.1.4-.1.5-.2.8-.4.8-1.2 0-1.6-.8-.4-2-.4-2.8 0-.6.3-.7.8-.4 1.2l-8.4 4.8c-.7-.2-1.6-.1-2.2.2-.8.4-.8 1.2 0 1.6.3.2.7.3 1.2.3l9.3 5.4c.1.2.3.4.5.5.3.1.6.2.9.3.7.1 1.4 0 1.9-.3s.7-.7.5-1.1l8.7-5c.8.2 1.7.2 2.3-.2.8-.2.8-1 .1-1.4z" opacity=".15"/><path fill="url(#s)" d="M454.7 179.75c-.8-.4-2-.4-2.8 0-.4.3-.6.6-.6.9l-8.7-5.4c.2-.1.4-.1.5-.2.8-.4.8-1.2 0-1.6-.8-.4-2-.4-2.8 0-.6.3-.7.8-.4 1.2l-8.4 4.8c-.7-.2-1.6-.1-2.2.2-.8.4-.8 1.2 0 1.6.3.2.7.3 1.2.3l9.3 5.4c.1.2.3.4.5.5.3.1.6.2.9.3.7.1 1.4 0 1.9-.3s.7-.7.5-1.1l8.7-5c.8.2 1.7.2 2.3-.2.9-.2.9-.9.1-1.4z" opacity=".15"/><path fill="url(#t)" d="M426.6 194.35c-.8-.4-2-.4-2.8 0-.4.3-.6.6-.6.9l-8.7-5.4c.2-.1.4-.1.5-.2.8-.4.8-1.2 0-1.6-.8-.4-2-.4-2.8 0-.6.3-.7.8-.4 1.2l-8.4 4.8c-.7-.2-1.6-.1-2.2.2-.8.4-.8 1.2 0 1.6.3.2.7.3 1.2.3l9.3 5.4c.1.2.3.4.5.5.3.1.6.2.9.3.7.1 1.4 0 1.9-.3s.7-.7.5-1.1l8.7-5c.8.2 1.7.2 2.3-.2.9-.2.9-.9.1-1.4z" opacity=".15"/><path fill="url(#u)" d="M677.1 365.25c-2.7 0-5.4-.2-8-.6 17.2 4.6 32.7 5.1 44.9-2 9.9-5.7 12.5-14.1 7.8-21.3-9.8 14.4-26.1 23.9-44.7 23.9z" opacity=".1"/><path fill="url(#v)" d="M677.1 365.25c29.6 0 53.6-24 53.6-53.6s-24-53.6-53.6-53.6-53.6 24-53.6 53.6 24 53.6 53.6 53.6z"/><path fill="url(#w)" d="M673.1 335.05l-6.9-4.2-11.7 6.7 7.3 4 11.3-6.5z" opacity=".15"/><path fill="url(#x)" d="M672.7 309.05l-6.9-4.2-11.7 6.7 7.3 4 11.3-6.5z" opacity=".15"/><path fill="url(#y)" d="M696 295.95l-6.9-4.2-11.7 6.7 7.3 4 11.3-6.5z" opacity=".15"/><path fill="url(#z)" d="M718.4 309.15l-6.9-4.2-11.7 6.7 7.3 4 11.3-6.5z" opacity=".15"/><path fill="url(#A)" d="M695.8 322.15l-6.9-4.2-11.7 6.7 7.3 4 11.3-6.5z" opacity=".15"/><path fill="url(#B)" d="M718.6 335.25l-6.9-4.2-11.7 6.7 7.3 4 11.3-6.5z" opacity=".15"/><path fill="url(#C)" d="M695.9 348.45l-6.9-4.2-11.7 6.7 7.3 4 11.3-6.5z" opacity=".15"/><path fill="url(#D)" d="M182.2 264.55l-15.2-9.4-12.3 7.9 14.3 8.8 13.2-7.3z" opacity=".15"/><path fill="url(#E)" d="M184 103.75c5.8 3.3 5.8 8.7.1 12.1-5.7 3.3-15.1 3.3-20.8 0-5.8-3.3-5.8-8.7-.1-12.1 5.7-3.4 15.1-3.4 20.8 0z" opacity=".15"/><path fill="url(#F)" d="M196 113.65c4.1 2.4 4.1 6.2 0 8.6-4.1 2.4-10.7 2.4-14.8 0-4.1-2.4-4.1-6.2 0-8.6 4-2.3 10.7-2.3 14.8 0z" opacity=".15"/><path fill="#1E9FE0" stroke="#50E6FF" stroke-width=".3" stroke-miterlimit="10" d="M495.9 171.75l-11.4-6.6 11.3-6.5 11.3 6.6-11.2 6.5zM495.9 184.85l-11.3-6.6 11.3-6.5 11.3 6.5-11.3 6.6zM484.5 165.15l.1 13.1 11.3 6.6v-13.1l-11.4-6.6z" opacity=".5"/><path stroke="#50E6FF" stroke-width=".3" stroke-miterlimit="10" d="M495.9 171.75v13.1l11.3-6.6-.1-13-11.2 6.5z"/><path fill="#1E9FE0" stroke="#50E6FF" stroke-width=".3" stroke-miterlimit="10" d="M495.8 158.65l.1 13.1 11.3 6.5-.1-13-11.3-6.6z" opacity=".5"/><path fill="#50E6FF" d="M484.6 166.65c.8 0 1.5-.7 1.5-1.5s-.7-1.5-1.5-1.5-1.5.7-1.5 1.5.7 1.5 1.5 1.5zM495.9 160.25c.8 0 1.5-.7 1.5-1.5s-.7-1.5-1.5-1.5-1.5.7-1.5 1.5.7 1.5 1.5 1.5zM507.2 166.75c.8 0 1.5-.7 1.5-1.5s-.7-1.5-1.5-1.5-1.5.7-1.5 1.5c.1.8.7 1.5 1.5 1.5zM495.9 173.25c.8 0 1.5-.7 1.5-1.5s-.7-1.5-1.5-1.5-1.5.7-1.5 1.5.7 1.5 1.5 1.5zM484.7 179.75c.8 0 1.5-.7 1.5-1.5s-.7-1.5-1.5-1.5-1.5.7-1.5 1.5.7 1.5 1.5 1.5zM507.2 179.75c.8 0 1.5-.7 1.5-1.5s-.7-1.5-1.5-1.5-1.5.7-1.5 1.5.7 1.5 1.5 1.5zM495.8 186.25c.8 0 1.5-.7 1.5-1.5s-.7-1.5-1.5-1.5-1.5.7-1.5 1.5.6 1.5 1.5 1.5z"/><path fill="#1E9FE0" stroke="#50E6FF" stroke-width=".3" stroke-miterlimit="10" d="M469.7 187.35l-11.3-6.6 11.3-6.5 11.3 6.6-11.3 6.5zM469.8 200.45l-11.3-6.6 11.2-6.5 11.4 6.6-11.3 6.5zM458.3 180.75l.1 13.1 11.3 6.6-.1-13.1-11.3-6.6zM469.7 174.25v13.1l11.4 6.6-.1-13.1-11.3-6.6z" opacity=".5"/><path fill="#50E6FF" d="M458.3 182.35c.8 0 1.5-.7 1.5-1.5s-.7-1.5-1.5-1.5-1.5.7-1.5 1.5c.1.8.7 1.5 1.5 1.5zM469.8 175.85c.8 0 1.5-.7 1.5-1.5s-.7-1.5-1.5-1.5-1.5.7-1.5 1.5.7 1.5 1.5 1.5zM469.8 188.95c.8 0 1.5-.7 1.5-1.5s-.7-1.5-1.5-1.5-1.5.7-1.5 1.5.7 1.5 1.5 1.5zM458.4 195.35c.8 0 1.5-.7 1.5-1.5s-.7-1.5-1.5-1.5-1.5.7-1.5 1.5c.1.8.7 1.5 1.5 1.5zM469.9 201.95c.8 0 1.5-.7 1.5-1.5s-.7-1.5-1.5-1.5-1.5.7-1.5 1.5.7 1.5 1.5 1.5zM481.1 195.45c.8 0 1.5-.7 1.5-1.5s-.7-1.5-1.5-1.5-1.5.7-1.5 1.5.7 1.5 1.5 1.5z"/><path fill="#1E9FE0" stroke="#50E6FF" stroke-width=".3" stroke-miterlimit="10" d="M442.7 203.25l-11.3-6.5 11.2-6.5 11.4 6.5-11.3 6.5zM442.8 216.35l-11.4-6.5 11.3-6.6 11.4 6.6-11.3 6.5zM431.4 196.75v13.1l11.4 6.5-.1-13.1-11.3-6.5zM442.6 190.25l.1 13 11.4 6.6-.1-13.1-11.4-6.5z" opacity=".5"/><path fill="#50E6FF" d="M431.4 198.15c.8 0 1.5-.7 1.5-1.5s-.7-1.5-1.5-1.5-1.5.7-1.5 1.5c0 .9.7 1.5 1.5 1.5zM442.7 191.75c.8 0 1.5-.7 1.5-1.5s-.7-1.5-1.5-1.5-1.5.7-1.5 1.5.7 1.5 1.5 1.5zM454.1 198.25c.8 0 1.5-.7 1.5-1.5s-.7-1.5-1.5-1.5-1.5.7-1.5 1.5.7 1.5 1.5 1.5zM442.8 204.75c.8 0 1.5-.7 1.5-1.5s-.7-1.5-1.5-1.5-1.5.7-1.5 1.5.7 1.5 1.5 1.5zM431.5 211.25c.8 0 1.5-.7 1.5-1.5s-.7-1.5-1.5-1.5-1.5.7-1.5 1.5c0 .9.7 1.5 1.5 1.5zM442.8 217.75c.8 0 1.5-.7 1.5-1.5s-.7-1.5-1.5-1.5-1.5.7-1.5 1.5.7 1.5 1.5 1.5zM454.2 211.25c.8 0 1.5-.7 1.5-1.5s-.7-1.5-1.5-1.5-1.5.7-1.5 1.5c0 .9.7 1.5 1.5 1.5z"/><path fill="#D5F9FD" d="M562.8 176.65l-2-1.2c-2.3-1.4-5.6-1.2-9.1.9-.2.1-.3.2-.5.3-1.9 1.1-1.1.5-2.9 1.7l-.7 2.8c1.8-1.2 3.7-2.3 5.6-3.4.2-.1.3-.2.5-.3 3.5-2 6.7-2.2 9.1-.8zM539.3 149.45l-2-1.2c-5.9-3.4-14.1-2.9-23.1 2.3l2 1.2c9-5.2 17.2-5.7 23.1-2.3zM516.2 151.75l-2-1.2c-9.8 5.7-18.6 15.8-24.6 27.2l2 1.2c6-11.4 14.8-21.6 24.6-27.2zM448 261.35l2 1.2c-2.3-1.3-3.7-4.2-3.7-8.2 0-8.1 5.7-18 12.8-22.1.5-.3 1-.6 1.6-.9.9-.5 1.8-1.1 2.9-1.6l-2-1.2c-1 .6-2 1.1-2.9 1.6-.6.3-1.1.6-1.6.9-7.1 4.1-12.8 14-12.8 22.1 0 4 1.4 6.8 3.7 8.2zM491.7 178.85l-2-1.2c-3.1-.2-6.6.7-10.3 2.9-11.7 6.8-21.2 23.2-21.2 36.7 0 4.8 1.2 8.6 3.3 11.2l2 1.2c-2.1-2.6-3.3-6.3-3.3-11.2 0-13.5 9.4-29.9 21.2-36.7 3.7-2.1 7.2-3 10.3-2.9z"/><path fill="#fff" d="M516.2 151.75c-9.8 5.7-18.6 15.8-24.6 27.2-3.1-.2-6.6.7-10.3 2.9-11.7 6.8-21.2 23.2-21.2 36.7 0 4.8 1.2 8.6 3.3 11.2-1 .6-2 1.1-2.9 1.6-.6.3-1.1.6-1.6.9-7.1 4.1-12.8 14-12.8 22.1 0 8.1 5.8 11.4 12.8 7.3 6.2-3.6 89.3-51.6 94.6-54.6 7.1-4.1 12.8-14 12.8-22.1 0-8.1-5.8-11.4-12.8-7.3-.2.1-.3.2-.5.3-1.9 1.1-3.8 2.2-5.6 3.4.8-3.7 1.2-7.4 1.2-10.9.1-20.8-14.5-29.1-32.4-18.7z" opacity=".3"/><path fill="#50E6FF" d="M530.8 148.25c10.4 0 17 8.4 17 22 0 3.4-.4 7-1.2 10.7-.1.4.1.8.4 1 .2.1.4.2.6.2.2 0 .4-.1.6-.2 1.7-1.1 3.5-2.2 5.5-3.3l.3-.2.2-.1c1.8-1.1 3.7-1.6 5.2-1.6 3.7 0 6.1 3.1 6.1 8.1 0 7.8-5.5 17.3-12.3 21.2l-34.2 19.8-60.3 34.8c-1.8 1.1-3.7 1.6-5.2 1.6-3.7 0-6.1-3.1-6.1-8.1 0-7.8 5.5-17.3 12.3-21.2l.7-.4.9-.5c.9-.5 1.8-1 2.8-1.6.3-.1.4-.4.5-.7.1-.3 0-.6-.2-.8-2-2.5-3.1-6.1-3.1-10.5 0-13.1 9.2-29.2 20.7-35.8 3.2-1.8 6.2-2.8 9-2.8.2 0 .5 0 .7 0 0 0 0 0 .1 0 .4 0 .7-.2.9-.5 6.1-11.6 14.9-21.4 24.2-26.8 4.8-2.8 9.5-4.3 13.9-4.3zm0-1c-4.4 0-9.3 1.4-14.6 4.5-9.8 5.7-18.6 15.8-24.6 27.2-.3 0-.5 0-.8 0-2.9 0-6.1.9-9.5 2.9-11.7 6.8-21.2 23.2-21.2 36.7 0 4.8 1.2 8.6 3.3 11.2-1 .6-2 1.1-2.9 1.6-.6.3-1.1.6-1.6.9-7.1 4.1-12.8 14-12.8 22.1 0 5.8 2.9 9.1 7.1 9.1 1.7 0 3.7-.6 5.7-1.8 6.2-3.6 89.3-51.6 94.6-54.6 7.1-4.1 12.8-14 12.8-22.1 0-5.8-2.9-9.1-7.1-9.1-1.7 0-3.7.6-5.7 1.8-.2.1-.3.2-.5.3-1.9 1.1-3.8 2.2-5.6 3.4.8-3.7 1.2-7.4 1.2-10.9.1-14.8-7.2-23.2-17.8-23.2z"/><path fill="#50E6FF" fill-opacity=".6" stroke="#50E6FF" d="M502.3 237.25l-11.8-6.7 11.7-6.6 11.8 6.6-11.7 6.7z" stroke-linejoin="round"/><path fill="#50E6FF" fill-opacity=".3" stroke="#50E6FF" d="M490.5 230.55l.1 13.3 11.8 6.6-.1-13.2-11.8-6.7z" stroke-linejoin="round"/><path fill="#50E6FF" fill-opacity=".5" stroke="#50E6FF" d="M502.3 237.25l.1 13.2 11.6-6.6v-13.3l-11.7 6.7z" stroke-linejoin="round"/><path fill="#50E6FF" fill-opacity=".6" stroke="#50E6FF" d="M474.7 252.65l-11.8-6.7 11.7-6.6 11.8 6.6-11.7 6.7z" stroke-linejoin="round"/><path fill="#50E6FF" fill-opacity=".3" stroke="#50E6FF" d="M462.9 245.95l.1 13.3 11.8 6.6-.1-13.2-11.8-6.7z" stroke-linejoin="round"/><path fill="#50E6FF" fill-opacity=".5" stroke="#50E6FF" d="M474.7 252.65l.1 13.2 11.6-6.6v-13.3l-11.7 6.7z" stroke-linejoin="round"/><path fill="#50E6FF" fill-opacity=".6" stroke="#50E6FF" d="M528.3 221.75l-11.8-6.7 11.7-6.6 11.8 6.6-11.7 6.7z" stroke-linejoin="round"/><path fill="#50E6FF" fill-opacity=".3" stroke="#50E6FF" d="M516.5 215.05l.1 13.3 11.8 6.6-.1-13.2-11.8-6.7z" stroke-linejoin="round"/><path fill="#50E6FF" fill-opacity=".5" stroke="#50E6FF" d="M528.3 221.75l.1 13.2 11.6-6.6v-13.3l-11.7 6.7z" stroke-linejoin="round"/><path fill="#50E6FF" fill-opacity=".6" stroke="#50E6FF" d="M555.8 205.85l-11.8-6.7 11.7-6.6 11.8 6.6-11.7 6.7z" stroke-linejoin="round"/><path fill="#50E6FF" fill-opacity=".3" stroke="#50E6FF" d="M544 199.15l.1 13.3 11.8 6.6-.1-13.2-11.8-6.7z" stroke-linejoin="round"/><path fill="#50E6FF" fill-opacity=".5" stroke="#50E6FF" d="M555.8 205.85l.1 13.2 11.6-6.6v-13.3l-11.7 6.7z" stroke-linejoin="round"/><path fill="#1E9FE0" stroke="#50E6FF" stroke-width=".3" stroke-miterlimit="10" d="M468 155.55l-11.4-6.6 11.3-6.5 11.4 6.5-11.3 6.6zM468.1 168.55l-11.4-6.5 11.3-6.5 11.3 6.5-11.2 6.5zM456.6 148.85l.1 13.1 11.4 6.5-.1-13-11.4-6.6zM467.9 142.35l.1 13.1 11.3 6.5v-13.1l-11.4-6.5z" opacity=".5"/><path fill="#50E6FF" d="M456.7 150.35c.8 0 1.5-.7 1.5-1.5s-.7-1.5-1.5-1.5-1.5.7-1.5 1.5.7 1.5 1.5 1.5zM468 143.95c.8 0 1.5-.7 1.5-1.5s-.7-1.5-1.5-1.5-1.5.7-1.5 1.5c.1.9.7 1.5 1.5 1.5zM479.4 150.45c.8 0 1.5-.7 1.5-1.5s-.7-1.5-1.5-1.5-1.5.7-1.5 1.5.7 1.5 1.5 1.5zM468 156.95c.8 0 1.5-.7 1.5-1.5s-.7-1.5-1.5-1.5-1.5.7-1.5 1.5c.1.9.7 1.5 1.5 1.5zM456.8 163.45c.8 0 1.5-.7 1.5-1.5s-.7-1.5-1.5-1.5-1.5.7-1.5 1.5.7 1.5 1.5 1.5zM468.1 169.95c.8 0 1.5-.7 1.5-1.5s-.7-1.5-1.5-1.5-1.5.7-1.5 1.5c.1.9.7 1.5 1.5 1.5zM479.5 163.45c.8 0 1.5-.7 1.5-1.5s-.7-1.5-1.5-1.5-1.5.7-1.5 1.5.7 1.5 1.5 1.5z"/><path fill="#1E9FE0" stroke="#50E6FF" stroke-width=".3" stroke-miterlimit="10" d="M413.1 186.85l-11.3-6.6 11.3-6.5 11.3 6.6-11.3 6.5zM413.2 199.95l-11.3-6.6 11.2-6.5 11.4 6.6-11.3 6.5zM401.8 180.25l.1 13.1 11.3 6.6-.1-13.1-11.3-6.6zM413.1 173.75v13.1l11.4 6.6-.1-13.1-11.3-6.6z" opacity=".5"/><path fill="#50E6FF" d="M401.9 181.75c.8 0 1.5-.7 1.5-1.5s-.7-1.5-1.5-1.5-1.5.7-1.5 1.5.7 1.5 1.5 1.5zM413.2 175.25c.8 0 1.5-.7 1.5-1.5s-.7-1.5-1.5-1.5-1.5.7-1.5 1.5c.1.9.7 1.5 1.5 1.5zM424.6 181.95c.8 0 1.5-.7 1.5-1.5s-.7-1.5-1.5-1.5-1.5.7-1.5 1.5.7 1.5 1.5 1.5zM413.2 188.35c.8 0 1.5-.7 1.5-1.5s-.7-1.5-1.5-1.5-1.5.7-1.5 1.5c.1.8.7 1.5 1.5 1.5zM401.9 194.85c.8 0 1.5-.7 1.5-1.5s-.7-1.5-1.5-1.5-1.5.7-1.5 1.5.7 1.5 1.5 1.5zM413.3 201.45c.8 0 1.5-.7 1.5-1.5s-.7-1.5-1.5-1.5-1.5.7-1.5 1.5c.1.8.7 1.5 1.5 1.5zM424.6 194.85c.8 0 1.5-.7 1.5-1.5s-.7-1.5-1.5-1.5-1.5.7-1.5 1.5.7 1.5 1.5 1.5z"/><path fill="#1E9FE0" stroke="#50E6FF" stroke-width=".3" stroke-miterlimit="10" d="M441.1 171.35l-11.3-6.5 11.2-6.6 11.4 6.6-11.3 6.5zM441.2 184.45l-11.4-6.6 11.3-6.5 11.4 6.6-11.3 6.5zM429.8 164.85v13l11.4 6.6-.1-13.1-11.3-6.5zM441 158.25l.1 13.1 11.4 6.6-.1-13.1-11.4-6.6z" opacity=".5"/><path fill="#50E6FF" d="M429.8 166.35c.8 0 1.5-.7 1.5-1.5s-.7-1.5-1.5-1.5-1.5.7-1.5 1.5.7 1.5 1.5 1.5zM441.1 159.85c.8 0 1.5-.7 1.5-1.5s-.7-1.5-1.5-1.5-1.5.7-1.5 1.5.7 1.5 1.5 1.5zM452.4 166.45c.8 0 1.5-.7 1.5-1.5s-.7-1.5-1.5-1.5-1.5.7-1.5 1.5c.1.8.7 1.5 1.5 1.5zM441.2 172.95c.8 0 1.5-.7 1.5-1.5s-.7-1.5-1.5-1.5-1.5.7-1.5 1.5c.1.8.7 1.5 1.5 1.5zM429.9 179.45c.8 0 1.5-.7 1.5-1.5s-.7-1.5-1.5-1.5-1.5.7-1.5 1.5.7 1.5 1.5 1.5zM441.2 185.95c.8 0 1.5-.7 1.5-1.5s-.7-1.5-1.5-1.5-1.5.7-1.5 1.5.7 1.5 1.5 1.5zM452.6 179.45c.8 0 1.5-.7 1.5-1.5s-.7-1.5-1.5-1.5-1.5.7-1.5 1.5.6 1.5 1.5 1.5z"/><path stroke="#50E6FF" stroke-width=".75" stroke-miterlimit="10" d="M386.7 154.05l-11.2-6.3 11-6.4 35 3.2-34.8 9.5z" opacity=".5" stroke-linejoin="round"/><path stroke="#50E6FF" stroke-width=".847" stroke-miterlimit="10" d="M386.7 166.85l-11-6.4 11-6.3 14.8 16.9-14.8-4.2z" opacity=".5"/><path stroke="#50E6FF" stroke-width=".847" stroke-miterlimit="10" d="M375.5 147.65l.1 12.7 11 6.4v-12.7l-11.1-6.4z" opacity=".5" stroke-linejoin="round"/><path stroke="#50E6FF" stroke-width=".75" stroke-miterlimit="10" d="M386.6 141.25l.1 12.8 14.8 16.9 20-26.5-34.9-3.2z" opacity=".5" stroke-linejoin="round"/><path fill="#50E6FF" d="M386.7 142.75c.8 0 1.4-.6 1.4-1.4 0-.8-.6-1.4-1.4-1.4-.8 0-1.4.6-1.4 1.4-.1.8.6 1.4 1.4 1.4zM421.5 145.95c.8 0 1.4-.6 1.4-1.4 0-.8-.6-1.4-1.4-1.4-.8 0-1.4.6-1.4 1.4 0 .8.7 1.4 1.4 1.4zM386.7 155.55c.8 0 1.4-.6 1.4-1.4 0-.8-.6-1.4-1.4-1.4-.8 0-1.4.6-1.4 1.4 0 .8.6 1.4 1.4 1.4zM375.7 161.85c.8 0 1.4-.6 1.4-1.4 0-.8-.6-1.4-1.4-1.4-.8 0-1.4.6-1.4 1.4 0 .8.6 1.4 1.4 1.4zM386.8 168.25c.8 0 1.4-.6 1.4-1.4 0-.8-.6-1.4-1.4-1.4-.8 0-1.4.6-1.4 1.4-.1.8.6 1.4 1.4 1.4zM401.5 172.35c.8 0 1.4-.6 1.4-1.4 0-.8-.6-1.4-1.4-1.4-.8 0-1.4.6-1.4 1.4 0 .7.6 1.4 1.4 1.4zM375.7 149.35c.8 0 1.4-.6 1.4-1.4 0-.8-.6-1.4-1.4-1.4-.8 0-1.4.6-1.4 1.4 0 .7.6 1.4 1.4 1.4z"/><path stroke="#50E6FF" stroke-width=".847" stroke-miterlimit="10" d="M402 109.55l-11.1-6.4-5.2-26.2 27.4 26.3-11.1 6.3z" opacity=".5" stroke-linejoin="round"/><path stroke="#50E6FF" stroke-width=".7" stroke-miterlimit="10" d="M401.7 133.75l-50.5-9.8 50.8-14.4 19.8 27.6-20.1-3.4z" opacity=".5"/><path stroke="#50E6FF" stroke-width=".847" stroke-miterlimit="10" d="M390.9 103.15l-39.7 20.8 50.5 9.8.3-24.1-11.1-6.5z" opacity=".5"/><path stroke="#50E6FF" stroke-width=".847" stroke-miterlimit="10" d="M385.6 76.95l16.4 32.6 19.8 27.6-8.8-34-27.4-26.2z" opacity=".5" stroke-linejoin="round"/><path fill="#50E6FF" d="M391 104.55c.8 0 1.4-.6 1.4-1.4 0-.8-.6-1.4-1.4-1.4-.8 0-1.4.6-1.4 1.4-.1.8.6 1.4 1.4 1.4zM413.1 104.65c.8 0 1.4-.6 1.4-1.4 0-.8-.6-1.4-1.4-1.4-.8 0-1.4.6-1.4 1.4-.1.8.6 1.4 1.4 1.4zM402.1 111.05c.8 0 1.4-.6 1.4-1.4 0-.8-.6-1.4-1.4-1.4-.8 0-1.4.6-1.4 1.4 0 .7.6 1.4 1.4 1.4zM351.2 125.35c.8 0 1.4-.6 1.4-1.4 0-.8-.6-1.4-1.4-1.4-.8 0-1.4.6-1.4 1.4-.1.7.6 1.4 1.4 1.4zM401.8 135.15c.8 0 1.4-.6 1.4-1.4 0-.8-.6-1.4-1.4-1.4-.8 0-1.4.6-1.4 1.4 0 .8.6 1.4 1.4 1.4zM421.9 138.65c.8 0 1.4-.6 1.4-1.4 0-.8-.6-1.4-1.4-1.4-.8 0-1.4.6-1.4 1.4-.1.7.6 1.4 1.4 1.4z"/><path stroke="#50E6FF" stroke-width=".847" stroke-miterlimit="10" d="M369.3 105.85l-11-6.4 11-6.3 11 6.4-11 6.3z" opacity=".5"/><path stroke="#50E6FF" stroke-width=".7" stroke-miterlimit="10" d="M369.4 118.65l-42.1-14.5 42 1.7 20.1 20.6-20-7.8zM358.2 99.35l-31 4.7 42.1 14.5-.1-12.8-11-6.4z" opacity=".5" stroke-linejoin="round"/><path stroke="#50E6FF" stroke-width=".847" stroke-miterlimit="10" d="M369.3 93.05v12.8l20.1 20.6-9.1-27-11-6.4z" opacity=".5" stroke-linejoin="round"/><path fill="#50E6FF" d="M358.3 100.95c.8 0 1.4-.6 1.4-1.4 0-.8-.6-1.4-1.4-1.4-.8 0-1.4.6-1.4 1.4 0 .8.6 1.4 1.4 1.4zM369.4 94.55c.8 0 1.4-.6 1.4-1.4 0-.8-.6-1.4-1.4-1.4-.8 0-1.4.6-1.4 1.4-.1.8.6 1.4 1.4 1.4zM380.4 101.05c.8 0 1.4-.6 1.4-1.4 0-.8-.6-1.4-1.4-1.4-.8 0-1.4.6-1.4 1.4 0 .7.6 1.4 1.4 1.4zM369.4 107.35c.8 0 1.4-.6 1.4-1.4 0-.8-.6-1.4-1.4-1.4-.8 0-1.4.6-1.4 1.4 0 .8.6 1.4 1.4 1.4zM327.3 105.65c.8 0 1.4-.6 1.4-1.4 0-.8-.6-1.4-1.4-1.4-.8 0-1.4.6-1.4 1.4 0 .7.6 1.4 1.4 1.4zM369.5 120.05c.8 0 1.4-.6 1.4-1.4 0-.8-.6-1.4-1.4-1.4-.8 0-1.4.6-1.4 1.4-.1.8.6 1.4 1.4 1.4zM389.4 127.95c.8 0 1.4-.6 1.4-1.4 0-.8-.6-1.4-1.4-1.4-.8 0-1.4.6-1.4 1.4 0 .7.6 1.4 1.4 1.4zM294.5 128.75c.8 0 1.4-.6 1.4-1.4 0-.8-.6-1.4-1.4-1.4-.8 0-1.4.6-1.4 1.4 0 .8.6 1.4 1.4 1.4zM303.6 164.25c.8 0 1.4-.6 1.4-1.4 0-.8-.6-1.4-1.4-1.4-.8 0-1.4.6-1.4 1.4-.1.7.6 1.4 1.4 1.4z"/><path stroke="#50E6FF" stroke-width=".7" stroke-miterlimit="10" d="M441.1 131.95l-11.1-6.4 11-6.3 14.3 19.5-14.2-6.8z" opacity=".5" stroke-linejoin="round"/><path stroke="#50E6FF" stroke-width=".847" stroke-miterlimit="10" d="M414 126.95l16-1.4 11.1 6.4-.1-12.8-27 7.8z" opacity=".5"/><path fill="#50E6FF" d="M414.1 128.35c.8 0 1.4-.6 1.4-1.4 0-.8-.6-1.4-1.4-1.4-.8 0-1.4.6-1.4 1.4 0 .8.6 1.4 1.4 1.4zM441.1 120.75c.8 0 1.4-.6 1.4-1.4 0-.8-.6-1.4-1.4-1.4-.8 0-1.4.6-1.4 1.4 0 .8.6 1.4 1.4 1.4zM430.1 127.05c.8 0 1.4-.6 1.4-1.4 0-.8-.6-1.4-1.4-1.4-.8 0-1.4.6-1.4 1.4-.1.8.6 1.4 1.4 1.4zM441.1 133.35c.8 0 1.4-.6 1.4-1.4 0-.8-.6-1.4-1.4-1.4-.8 0-1.4.6-1.4 1.4 0 .8.6 1.4 1.4 1.4zM455.4 140.15c.8 0 1.4-.6 1.4-1.4 0-.8-.6-1.4-1.4-1.4-.8 0-1.4.6-1.4 1.4 0 .8.6 1.4 1.4 1.4z"/><path stroke="#50E6FF" stroke-width=".847" stroke-miterlimit="10" d="M355.6 162.85l-36.2-3.5 36.1-9.2 11 6.3-10.9 6.4z" opacity=".5" stroke-linecap="round" stroke-linejoin="round"/><path stroke="#50E6FF" stroke-width=".847" stroke-miterlimit="10" d="M355.6 175.65l-11-6.3 11-6.4 11 6.4-11 6.3z" opacity=".5"/><path stroke="#50E6FF" stroke-width=".75" stroke-miterlimit="10" d="M319.4 159.35l25.2 9.9 11 6.3v-12.7l-36.2-3.5z" opacity=".5" stroke-linecap="round" stroke-linejoin="round"/><path stroke="#50E6FF" stroke-width=".847" stroke-miterlimit="10" d="M355.5 150.15l.1 12.7 11 6.4-.1-12.8-11-6.3z" opacity=".5"/><path fill="#50E6FF" d="M319.5 160.85c.8 0 1.4-.6 1.4-1.4 0-.8-.6-1.4-1.4-1.4-.8 0-1.4.6-1.4 1.4-.1.7.6 1.4 1.4 1.4zM355.6 151.75c.8 0 1.4-.6 1.4-1.4 0-.8-.6-1.4-1.4-1.4-.8 0-1.4.6-1.4 1.4 0 .7.6 1.4 1.4 1.4zM366.6 158.05c.8 0 1.4-.6 1.4-1.4 0-.8-.6-1.4-1.4-1.4-.8 0-1.4.6-1.4 1.4 0 .8.6 1.4 1.4 1.4zM355.6 164.35c.8 0 1.4-.6 1.4-1.4 0-.8-.6-1.4-1.4-1.4-.8 0-1.4.6-1.4 1.4 0 .8.6 1.4 1.4 1.4zM344.5 170.75c.8 0 1.4-.6 1.4-1.4 0-.8-.6-1.4-1.4-1.4-.8 0-1.4.6-1.4 1.4 0 .7.6 1.4 1.4 1.4zM355.7 177.05c.8 0 1.4-.6 1.4-1.4 0-.8-.6-1.4-1.4-1.4-.8 0-1.4.6-1.4 1.4 0 .8.6 1.4 1.4 1.4zM366.6 170.75c.8 0 1.4-.6 1.4-1.4 0-.8-.6-1.4-1.4-1.4-.8 0-1.4.6-1.4 1.4 0 .7.6 1.4 1.4 1.4z"/><path stroke="#50E6FF" stroke-width=".7" stroke-miterlimit="10" d="M370.3 135.85l-60.5-8 11 6.4 43.9 10.4 5.6-8.8zM320.8 108.75l44 36-32.8-16.8-.1-12.8-11.1-6.4z" opacity=".5" stroke-linejoin="round"/><path fill="#50E6FF" d="M370.3 137.25c.8 0 1.4-.6 1.4-1.4 0-.8-.6-1.4-1.4-1.4-.8 0-1.4.6-1.4 1.4 0 .8.6 1.4 1.4 1.4zM320.9 110.25c.8 0 1.4-.6 1.4-1.4 0-.8-.6-1.4-1.4-1.4-.8 0-1.4.6-1.4 1.4 0 .8.6 1.4 1.4 1.4zM331.8 116.75c.8 0 1.4-.6 1.4-1.4 0-.8-.6-1.4-1.4-1.4-.8 0-1.4.6-1.4 1.4 0 .7.7 1.4 1.4 1.4zM364.8 146.25c.8 0 1.4-.6 1.4-1.4 0-.8-.6-1.4-1.4-1.4-.8 0-1.4.6-1.4 1.4-.1.8.6 1.4 1.4 1.4zM309.9 129.45c.8 0 1.4-.6 1.4-1.4 0-.8-.6-1.4-1.4-1.4-.8 0-1.4.6-1.4 1.4-.1.7.6 1.4 1.4 1.4zM321 135.75c.8 0 1.4-.6 1.4-1.4 0-.8-.6-1.4-1.4-1.4-.8 0-1.4.6-1.4 1.4 0 .8.6 1.4 1.4 1.4zM331.9 129.45c.8 0 1.4-.6 1.4-1.4 0-.8-.6-1.4-1.4-1.4-.8 0-1.4.6-1.4 1.4 0 .7.7 1.4 1.4 1.4zM276 116.75c.8 0 1.4-.6 1.4-1.4 0-.8-.6-1.4-1.4-1.4-.8 0-1.4.6-1.4 1.4-.1.8.6 1.4 1.4 1.4zM360.1 81.25c.8 0 1.4-.6 1.4-1.4 0-.8-.6-1.4-1.4-1.4-.8 0-1.4.6-1.4 1.4 0 .8.6 1.4 1.4 1.4zM293.8 147.65c.8 0 1.4-.6 1.4-1.4 0-.8-.6-1.4-1.4-1.4-.8 0-1.4.6-1.4 1.4-.1.7.6 1.4 1.4 1.4zM313.4 94.15c.8 0 1.4-.6 1.4-1.4 0-.8-.6-1.4-1.4-1.4-.8 0-1.4.6-1.4 1.4 0 .8.6 1.4 1.4 1.4zM296.8 109.95c.8 0 1.4-.6 1.4-1.4 0-.8-.6-1.4-1.4-1.4-.8 0-1.4.6-1.4 1.4-.1.7.6 1.4 1.4 1.4zM314.7 147.55c.8 0 1.4-.6 1.4-1.4 0-.8-.6-1.4-1.4-1.4-.8 0-1.4.6-1.4 1.4 0 .7.6 1.4 1.4 1.4zM327.7 88.85c.8 0 1.4-.6 1.4-1.4 0-.8-.6-1.4-1.4-1.4-.8 0-1.4.6-1.4 1.4 0 .7.6 1.4 1.4 1.4zM343.5 88.85c.8 0 1.4-.6 1.4-1.4 0-.8-.6-1.4-1.4-1.4-.8 0-1.4.6-1.4 1.4 0 .7.6 1.4 1.4 1.4zM385.7 78.65c.8 0 1.4-.6 1.4-1.4 0-.8-.6-1.4-1.4-1.4-.8 0-1.4.6-1.4 1.4 0 .8.6 1.4 1.4 1.4zM343.4 72.35c.8 0 1.4-.6 1.4-1.4 0-.8-.6-1.4-1.4-1.4-.8 0-1.4.5-1.4 1.3s.6 1.5 1.4 1.5zM295.9 95.25c.8 0 1.4-.6 1.4-1.4 0-.8-.6-1.4-1.4-1.4-.8 0-1.4.6-1.4 1.4 0 .8.6 1.4 1.4 1.4z"/><path fill="#50E6FF" d="M581.8 221.25l-11.7-6.7 11.7-6.6 11.7 6.7-11.7 6.6z" opacity=".5"/><path fill="#0078D4" d="M570.1 214.55l.1 13.3 11.7 6.7-.1-13.3-11.7-6.7z" opacity=".5"/><path fill="#1E9FE0" d="M581.8 221.25l.1 13.3 11.7-6.6-.1-13.3-11.7 6.6z" opacity=".5"/><path fill="#50E6FF" d="M556 236.85l-11.7-6.7 11.7-6.6 11.7 6.7-11.7 6.6z" opacity=".5"/><path fill="#0078D4" d="M544.3 230.15l.1 13.3 11.7 6.7-.1-13.3-11.7-6.7z" opacity=".5"/><path fill="#1E9FE0" d="M556 236.85l.1 13.3 11.7-6.6-.1-13.3-11.7 6.6z" opacity=".5"/><path fill="#50E6FF" d="M528.7 252.65l-11.7-6.7 11.7-6.6 11.7 6.7-11.7 6.6z" opacity=".5"/><path fill="#0078D4" d="M517 245.95l.1 13.3 11.7 6.7-.1-13.3-11.7-6.7z" opacity=".5"/><path fill="#1E9FE0" d="M528.7 252.65l.1 13.3 11.7-6.6-.1-13.3-11.7 6.6z" opacity=".5"/><path fill="#50E6FF" d="M556 267.95l-11.4-6.6 11.3-6.5 11.4 6.6-11.3 6.5z"/><path fill="#0078D4" d="M544.6 261.35l.1 13.1 11.4 6.6-.1-13.1-11.4-6.6z"/><path fill="#1E9FE0" d="M556 267.95l.1 13.1 11.2-6.5v-13.1l-11.3 6.5z"/><path fill="#50E6FF" d="M582 252.75l-11.3-6.6 11.3-6.5 11.3 6.5-11.3 6.6z"/><path fill="#0078D4" d="M570.7 246.15l.1 13.1 11.3 6.5-.1-13-11.3-6.6z"/><path fill="#1E9FE0" d="M582 252.75l.1 13 11.3-6.5-.1-13.1-11.3 6.6z"/><path fill="#50E6FF" d="M609.3 236.75l-11.4-6.5 11.3-6.6 11.4 6.6-11.3 6.5z"/><path fill="#0078D4" d="M597.9 230.25l.1 13 11.4 6.6-.1-13.1-11.4-6.5z"/><path fill="#1E9FE0" d="M609.3 236.75l.1 13.1 11.2-6.5v-13.1l-11.3 6.5z"/><path fill="#50E6FF" d="M609.2 268.15l-11.3-6.5 11.2-6.5 11.4 6.5-11.3 6.5z"/><path fill="#0078D4" d="M597.9 261.65v13.1l11.4 6.5-.1-13.1-11.3-6.5z"/><path fill="#1E9FE0" d="M609.2 268.15l.1 13.1 11.2-6.5v-13.1l-11.3 6.5z"/><path fill="#50E6FF" d="M636 252.05l-11.3-6.6 11.3-6.5 11.3 6.6-11.3 6.5z"/><path fill="#0078D4" d="M624.7 245.45l.1 13.1 11.3 6.6-.1-13.1-11.3-6.6z"/><path fill="#1E9FE0" d="M636 252.05l.1 13.1 11.3-6.5-.1-13.1-11.3 6.5z"/><path fill="#fff" d="M120.9 144.35h-1.7l-.8-2.4h-3.6l-.8 2.4h-1.7l3.5-9.3h1.7l3.4 9.3zm-2.9-3.7l-1.3-3.7c0-.1-.1-.3-.1-.6 0 .2-.1.4-.1.6l-1.3 3.7h2.8zm9.1-2.3l-3.6 4.8h3.6v1.2h-5.7v-.6l3.7-4.9h-3.3v-1.2h5.3v.7zm7.2 6h-1.5v-1c-.4.8-1.1 1.2-2 1.2-1.6 0-2.3-.9-2.3-2.8v-4h1.5v3.7c0 1.2.5 1.8 1.4 1.8.4 0 .8-.2 1.1-.5.3-.3.4-.8.4-1.3v-3.8h1.5v6.7h-.1zm5.9-5.2c-.2-.1-.4-.2-.8-.2s-.8.2-1.1.6c-.3.4-.4.9-.4 1.6v3.2h-1.5v-6.6h1.5v1.4c.1-.5.4-.8.7-1.1.3-.3.6-.4 1-.4.3 0 .5 0 .6.1v1.4zm6.7 2.3h-4.5c0 .6.2 1.1.6 1.4.4.3.9.5 1.5.5.7 0 1.4-.2 1.9-.6v1.2c-.6.3-1.4.5-2.4.5s-1.7-.3-2.3-.9c-.6-.6-.8-1.5-.8-2.5s.3-1.9.9-2.5c.6-.7 1.4-1 2.3-1 .9 0 1.6.3 2.1.9.5.6.7 1.4.7 2.4v.6zm-1.5-1.1c0-.5-.1-1-.4-1.3-.3-.3-.6-.5-1-.5s-.8.2-1.1.5c-.3.3-.5.7-.5 1.2h3v.1zm10.8 4.1c-1.3 0-2.4-.4-3.2-1.3-.8-.9-1.2-2-1.2-3.4 0-1.5.4-2.7 1.2-3.6.8-.9 1.9-1.3 3.3-1.3 1.3 0 2.4.4 3.1 1.3.8.9 1.2 2 1.2 3.4 0 1.5-.4 2.7-1.2 3.6-.7.9-1.8 1.3-3.2 1.3zm.1-8.2c-.8 0-1.5.3-2.1 1-.5.6-.8 1.5-.8 2.5s.3 1.9.8 2.5c.5.6 1.2.9 2 .9.9 0 1.6-.3 2.1-.9.5-.6.8-1.4.8-2.5s-.3-2-.8-2.6c-.5-.6-1.1-.9-2-.9zm7.6 7.1v4h-1.5v-9.7h1.5v1.2c.5-.9 1.3-1.3 2.3-1.3.8 0 1.5.3 2 .9.5.6.7 1.4.7 2.4 0 1.1-.3 2-.8 2.7-.5.7-1.3 1-2.2 1-.9-.1-1.5-.5-2-1.2zm0-2.6v.8c0 .5.2.9.5 1.2.3.3.7.5 1.2.5.6 0 1-.2 1.3-.6.3-.4.5-1 .5-1.8 0-.7-.1-1.2-.4-1.5-.3-.4-.7-.6-1.2-.6s-1 .2-1.3.6c-.5.3-.6.8-.6 1.4zm12.2.7h-4.5c0 .6.2 1.1.6 1.4.4.3.9.5 1.5.5.7 0 1.4-.2 1.9-.6v1.2c-.6.3-1.4.5-2.4.5s-1.7-.3-2.3-.9c-.6-.6-.8-1.5-.8-2.5s.3-1.9.9-2.5c.6-.7 1.4-1 2.3-1 .9 0 1.6.3 2.1.9.5.6.7 1.4.7 2.4v.6zm-1.5-1.1c0-.5-.1-1-.4-1.3-.3-.3-.6-.5-1-.5s-.8.2-1.1.5c-.3.3-.5.7-.5 1.2h3v.1zm9 4h-1.5v-3.7c0-1.2-.4-1.9-1.3-1.9-.5 0-.8.2-1.1.5-.3.3-.4.8-.4 1.3v3.8h-1.5v-6.6h1.5v1.1c.5-.8 1.2-1.3 2.1-1.3.7 0 1.3.2 1.6.7.4.5.6 1.1.6 2v4.1zm5.9 0v-9.3h2.7c3.4 0 5.1 1.5 5.1 4.5 0 1.4-.5 2.6-1.4 3.5-.9.9-2.2 1.3-3.8 1.3h-2.6zm1.5-8v6.7h1.2c1.1 0 1.9-.3 2.5-.9.6-.6.9-1.4.9-2.5 0-2.2-1.1-3.3-3.4-3.3H191zm13 8h-1.5v-1c-.5.8-1.1 1.2-2 1.2-.7 0-1.2-.2-1.5-.5-.4-.4-.5-.8-.5-1.4 0-1.2.7-2 2.2-2.2l2-.3c0-.9-.4-1.4-1.3-1.4-.8 0-1.5.3-2.1.8v-1.3c.7-.4 1.5-.6 2.4-.6 1.7 0 2.5.8 2.5 2.5v4.2h-.2zm-1.4-3.3l-1.4.2c-.4.1-.8.2-1 .3-.2.2-.3.4-.3.8 0 .3.1.5.3.7.2.2.5.3.8.3.5 0 .8-.2 1.1-.5.3-.3.5-.7.5-1.2v-.6zm6.9 3.2c-.3.1-.7.2-1.2.2-1.3 0-1.9-.6-1.9-1.9v-3.7h-1.1v-1.2h1.1v-1.5l1.5-.4v2h1.6v1.2h-1.6v3.3c0 .4.1.7.2.8.1.2.4.3.7.3.3 0 .5-.1.7-.2v1.1zm6.5.1h-1.5v-1c-.5.8-1.1 1.2-2 1.2-.7 0-1.2-.2-1.5-.5-.4-.4-.5-.8-.5-1.4 0-1.2.7-2 2.2-2.2l2-.3c0-.9-.4-1.4-1.3-1.4-.8 0-1.5.3-2.1.8v-1.3c.7-.4 1.5-.6 2.4-.6 1.7 0 2.5.8 2.5 2.5v4.2h-.2zm-1.4-3.3l-1.4.2c-.4.1-.8.2-1 .3-.2.2-.3.4-.3.8 0 .3.1.5.3.7.2.2.5.3.8.3.5 0 .8-.2 1.1-.5.3-.3.5-.7.5-1.2v-.6zm3 3.1v-1.4c.6.4 1.2.6 1.9.6.9 0 1.4-.3 1.4-.8 0-.2 0-.3-.1-.4-.1-.1-.2-.2-.3-.3-.1-.1-.3-.2-.5-.2-.2-.1-.4-.1-.6-.2-.3-.1-.5-.2-.7-.3-.2-.1-.4-.3-.5-.4-.1-.2-.3-.3-.3-.5-.1-.2-.1-.4-.1-.7 0-.3.1-.6.2-.8.2-.2.4-.5.6-.6.3-.2.5-.3.9-.4.3-.1.7-.1 1-.1.6 0 1.2.1 1.6.3v1.3c-.5-.3-1-.5-1.6-.5-.2 0-.4 0-.5.1-.2 0-.3.1-.4.2-.1.1-.2.2-.3.3-.1.1-.1.2-.1.3 0 .1 0 .3.1.4.1.1.1.2.3.3.1.1.3.1.4.2.2.1.4.1.6.2.3.1.5.2.8.4.2.1.4.3.6.4.2.2.3.3.4.5.1.2.1.4.1.7 0 .3-.1.6-.2.9-.2.3-.4.5-.6.6-.3.2-.6.3-.9.4-.3.1-.7.1-1.1.1-1-.3-1.6-.4-2.1-.6zm11.8-2.7h-4.5c0 .6.2 1.1.6 1.4.4.3.9.5 1.5.5.7 0 1.4-.2 1.9-.6v1.2c-.6.4-1.4.6-2.4.6s-1.7-.3-2.3-.9c-.6-.6-.8-1.5-.8-2.5s.3-1.9.9-2.5c.6-.7 1.4-1 2.3-1 .9 0 1.6.3 2.1.9.5.6.7 1.4.7 2.4v.5zm-1.4-1.1c0-.5-.1-1-.4-1.3-.3-.3-.6-.5-1-.5s-.8.2-1.1.5c-.3.3-.5.7-.5 1.2h3v.1zm6.5 3.9c-.3.1-.7.2-1.2.2-1.3 0-1.9-.6-1.9-1.9v-3.7h-1.1v-1.2h1.1v-1.5l1.5-.4v2h1.6v1.2h-1.6v3.3c0 .4.1.7.2.8.1.2.4.3.7.3.3 0 .5-.1.7-.2v1.1zm1-.1v-1.4c.6.4 1.2.6 1.9.6.9 0 1.4-.3 1.4-.8 0-.2 0-.3-.1-.4-.1-.1-.2-.2-.3-.3-.1-.1-.3-.2-.5-.2-.2-.1-.4-.1-.6-.2-.3-.1-.5-.2-.7-.3-.2-.1-.4-.3-.5-.4-.1-.2-.2-.3-.3-.5-.1-.2-.1-.4-.1-.7 0-.3.1-.6.2-.8.2-.2.4-.5.6-.6.3-.2.5-.3.9-.4.3-.1.7-.1 1-.1.6 0 1.2.1 1.6.3v1.3c-.5-.3-1-.5-1.6-.5-.2 0-.4 0-.5.1-.2 0-.3.1-.4.2-.1.1-.2.2-.3.3-.1.1-.1.2-.1.3 0 .1 0 .3.1.4.1.1.1.2.3.3.1.1.3.1.4.2.2.1.4.1.6.2.3.1.5.2.8.4.2.1.4.3.6.4.2.2.3.3.4.5.1.2.1.4.1.7 0 .3-.1.6-.2.9-.2.3-.4.5-.6.6-.3.2-.6.3-.9.4-.3.1-.7.1-1.1.1-.9-.3-1.6-.4-2.1-.6zM136.2 303.25H131v-9.3h5v1.3h-3.5v2.6h3.2v1.3h-3.2v2.7h3.7v1.4zm7.5 0h-1.5v-3.8c0-1.2-.4-1.9-1.3-1.9-.5 0-.8.2-1.1.5-.3.3-.4.8-.4 1.3v3.8h-1.5v-6.6h1.5v1.1c.5-.8 1.2-1.3 2.1-1.3.7 0 1.3.2 1.6.7.4.5.6 1.1.6 2v4.2zm5.5-.1c-.3.1-.7.2-1.2.2-1.3 0-1.9-.6-1.9-1.9v-3.7H145v-1.2h1.1v-1.5l1.5-.4v2h1.6v1.2h-1.6v3.3c0 .4.1.7.2.8.1.2.4.3.7.3.3 0 .5-.1.7-.2v1.1zm7-2.9h-4.5c0 .6.2 1.1.6 1.4.4.3.9.5 1.5.5.7 0 1.4-.2 1.9-.6v1.2c-.6.4-1.4.6-2.4.6s-1.7-.3-2.3-.9c-.6-.6-.8-1.5-.8-2.5s.3-1.9.9-2.5c.6-.7 1.4-1 2.3-1 .9 0 1.6.3 2.1.9.5.6.7 1.4.7 2.4v.5zm-1.5-1c0-.5-.1-1-.4-1.3-.3-.3-.6-.5-1-.5s-.8.2-1.1.5c-.3.3-.5.7-.5 1.2h3v.1zm6.9-1.2c-.2-.1-.4-.2-.8-.2s-.8.2-1.1.6c-.3.4-.4.9-.4 1.6v3.2h-1.5v-6.6h1.5v1.4c.1-.5.4-.8.7-1.1.3-.3.6-.4 1-.4.3 0 .5 0 .6.1v1.4zm2.7 4.2v4h-1.5v-9.7h1.5v1.2c.5-.9 1.3-1.3 2.3-1.3.8 0 1.5.3 2 .9.5.6.7 1.4.7 2.4 0 1.1-.3 2-.8 2.7-.5.7-1.3 1-2.2 1-.9-.1-1.6-.5-2-1.2zm-.1-2.6v.8c0 .5.2.9.5 1.2.3.3.7.5 1.2.5.6 0 1-.2 1.3-.6.3-.4.5-1 .5-1.8 0-.7-.1-1.2-.4-1.5-.3-.4-.7-.6-1.2-.6s-1 .2-1.3.6c-.4.3-.6.8-.6 1.4zm10.5-1.6c-.2-.1-.4-.2-.8-.2s-.8.2-1.1.6c-.3.4-.4.9-.4 1.6v3.2h-1.5v-6.6h1.5v1.4c.1-.5.4-.8.7-1.1.3-.3.6-.4 1-.4.3 0 .5 0 .6.1v1.4zm2-2.9c-.2 0-.5-.1-.6-.2-.2-.2-.3-.4-.3-.6 0-.2.1-.5.3-.6.2-.2.4-.2.6-.2.3 0 .5.1.6.2.2.2.3.4.3.6 0 .2-.1.4-.3.6-.2.2-.4.2-.6.2zm.7 8.1h-1.5v-6.6h1.5v6.6zm1.7-.3v-1.4c.6.4 1.2.6 1.9.6.9 0 1.4-.3 1.4-.8 0-.2 0-.3-.1-.4-.1-.1-.2-.2-.3-.3-.1-.1-.3-.2-.5-.2-.2-.1-.4-.1-.6-.2-.3-.1-.5-.2-.7-.3-.2-.1-.4-.3-.5-.4-.1-.2-.3-.3-.3-.5-.1-.2-.1-.4-.1-.7 0-.3.1-.6.2-.8.2-.2.4-.5.6-.6.3-.2.5-.3.9-.4.3-.1.7-.1 1-.1.6 0 1.2.1 1.6.3v1.3c-.5-.3-1-.5-1.6-.5-.2 0-.4 0-.5.1-.2 0-.3.1-.4.2-.1.1-.2.2-.3.3-.1.1-.1.2-.1.3 0 .1 0 .3.1.4.1.1.1.2.3.3.1.1.3.1.4.2.2.1.4.1.6.2.3.1.5.2.8.4.2.1.4.3.6.4.2.2.3.3.4.5.1.2.1.4.1.7 0 .3-.1.6-.2.9-.2.3-.4.5-.6.6-.3.2-.6.3-.9.4-.3.1-.7.1-1.1.1-.9-.2-1.6-.3-2.1-.6zm11.9-2.7h-4.5c0 .6.2 1.1.6 1.4.4.3.9.5 1.5.5.7 0 1.4-.2 1.9-.6v1.2c-.6.4-1.4.6-2.4.6s-1.7-.3-2.3-.9c-.6-.6-.8-1.5-.8-2.5s.3-1.9.9-2.5c.6-.7 1.4-1 2.3-1 .9 0 1.6.3 2.1.9.5.6.7 1.4.7 2.4v.5zm-1.5-1c0-.5-.1-1-.4-1.3-.3-.3-.6-.5-1-.5s-.8.2-1.1.5c-.3.3-.5.7-.5 1.2h3v.1zm12.8 4h-1.5v-1.1c-.5.9-1.2 1.3-2.2 1.3-.8 0-1.5-.3-2-.9-.5-.6-.7-1.4-.7-2.4 0-1.1.3-2 .8-2.6.5-.7 1.3-1 2.2-1 .9 0 1.5.4 1.9 1.1v-4.1h1.5v9.7zm-1.4-3.1v-.9c0-.5-.2-.9-.5-1.2-.3-.3-.7-.5-1.2-.5-.6 0-1 .2-1.3.6-.3.4-.5 1-.5 1.7s.2 1.2.5 1.6c.3.4.7.6 1.2.6s.9-.2 1.2-.6c.4-.2.6-.7.6-1.3zm8.6 3.1H208v-1c-.5.8-1.1 1.2-2 1.2-.7 0-1.2-.2-1.5-.5-.4-.4-.5-.8-.5-1.4 0-1.3.7-2 2.2-2.2l2-.3c0-.9-.4-1.4-1.3-1.4-.8 0-1.5.3-2.1.8v-1.3c.7-.4 1.5-.6 2.4-.6 1.7 0 2.5.8 2.5 2.5v4.2h-.2zm-1.4-3.3l-1.4.2c-.4.1-.8.2-1 .3-.2.2-.3.4-.3.8 0 .3.1.5.3.7.2.2.5.3.8.3.5 0 .8-.2 1.1-.5.3-.3.5-.7.5-1.2v-.6zm6.9 3.2c-.3.1-.7.2-1.2.2-1.3 0-1.9-.6-1.9-1.9v-3.7h-1.1v-1.2h1.1v-1.5l1.5-.4v2h1.6v1.2h-1.6v3.3c0 .4.1.7.2.8.1.2.4.3.7.3.3 0 .5-.1.7-.2v1.1zm6.5.1H220v-1c-.5.8-1.1 1.2-2 1.2-.7 0-1.2-.2-1.5-.5-.4-.4-.5-.8-.5-1.4 0-1.3.7-2 2.2-2.2l2-.3c0-.9-.4-1.4-1.3-1.4-.8 0-1.5.3-2.1.8v-1.3c.7-.4 1.5-.6 2.4-.6 1.7 0 2.5.8 2.5 2.5v4.2h-.2zm-1.5-3.3l-1.4.2c-.4.1-.8.2-1 .3-.2.2-.3.4-.3.8 0 .3.1.5.3.7.2.2.5.3.8.3.5 0 .8-.2 1.1-.5.3-.3.5-.7.5-1.2v-.6zM315.1 230.05h-4.7v-8.4h4.5v1.2h-3.1v2.4h2.9v1.2h-2.9v2.5h3.3v1.1zm6.8 0h-1.4v-3.4c0-1.1-.4-1.7-1.2-1.7-.4 0-.8.2-1 .5-.3.3-.4.7-.4 1.2v3.4h-1.4v-6h1.4v1c.4-.8 1.1-1.1 1.9-1.1.7 0 1.1.2 1.5.6.3.4.5 1 .5 1.8v3.7h.1zm5.3-4.7c-.2-.1-.4-.2-.7-.2-.4 0-.7.2-1 .5-.3.4-.4.9-.4 1.5v2.9h-1.4v-6h1.4v1.2c.1-.4.3-.8.6-1 .3-.2.6-.4.9-.4.2 0 .4 0 .6.1v1.4zm1.7-2.5c-.2 0-.4-.1-.6-.2-.2-.1-.2-.3-.2-.6 0-.2.1-.4.2-.6.2-.1.4-.2.6-.2.2 0 .4.1.6.2.2.1.2.3.2.6 0 .2-.1.4-.2.5-.1.2-.3.3-.6.3zm.7 7.2h-1.4v-6h1.4v6zm6.2-.2c-.5.3-1 .4-1.7.4-.9 0-1.6-.3-2.2-.8-.5-.6-.8-1.3-.8-2.2 0-1 .3-1.8.9-2.4.6-.6 1.4-.9 2.4-.9.5 0 1 .1 1.4.3v1.3c-.4-.3-.9-.5-1.3-.5-.6 0-1 .2-1.4.6-.4.4-.6.9-.6 1.5s.2 1.1.5 1.5c.3.4.8.5 1.4.5.5 0 .9-.2 1.4-.5v1.2zm6.8.2h-1.4v-3.3c0-1.2-.4-1.8-1.2-1.8-.4 0-.7.2-1 .5-.3.3-.4.8-.4 1.3v3.2h-1.4v-8.9h1.4v3.9c.5-.8 1.1-1.1 1.9-1.1 1.3 0 2 .8 2 2.4v3.8h.1zm6.9-2.6h-4.1c0 .6.2 1 .5 1.3.3.3.8.5 1.3.5.6 0 1.2-.2 1.8-.6v1.1c-.5.3-1.3.5-2.2.5-.9 0-1.6-.3-2.1-.8s-.8-1.3-.8-2.3c0-.9.3-1.7.8-2.3.6-.6 1.2-.9 2.1-.9.8 0 1.5.3 1.9.8.5.5.7 1.3.7 2.2v.5h.1zm-1.3-1c0-.5-.1-.9-.3-1.1-.2-.3-.5-.4-.9-.4s-.7.1-1 .4c-.3.3-.4.7-.5 1.1h2.7zm8.1 3.6H355v-1c-.4.8-1.1 1.2-2 1.2-.7 0-1.3-.3-1.8-.8-.4-.5-.7-1.3-.7-2.2 0-1 .2-1.8.7-2.4.5-.6 1.1-.9 2-.9.8 0 1.4.3 1.8 1v-3.7h1.4v8.8h-.1zm-1.3-2.7v-.8c0-.4-.1-.8-.4-1.1-.3-.3-.6-.4-1.1-.4-.5 0-.9.2-1.2.6-.3.4-.4.9-.4 1.6 0 .6.1 1.1.4 1.4.3.4.7.5 1.1.5.5 0 .8-.2 1.1-.5.4-.4.5-.8.5-1.3zm12.1 2.7h-1.4v-1c-.4.8-1.1 1.2-2 1.2-.7 0-1.3-.3-1.8-.8-.4-.5-.7-1.3-.7-2.2 0-1 .2-1.8.7-2.4.5-.6 1.1-.9 2-.9.8 0 1.4.3 1.8 1v-3.7h1.4v8.8zm-1.3-2.7v-.8c0-.4-.1-.8-.4-1.1-.3-.3-.6-.4-1.1-.4-.5 0-.9.2-1.2.6-.3.4-.4.9-.4 1.6 0 .6.1 1.1.4 1.4.3.4.7.5 1.1.5.5 0 .8-.2 1.1-.5.3-.4.5-.8.5-1.3zm7.8 2.7h-1.3v-.9c-.4.7-1 1.1-1.8 1.1-.6 0-1.1-.2-1.4-.5-.3-.3-.5-.7-.5-1.3 0-1.1.7-1.8 2-2l1.8-.3c0-.9-.4-1.3-1.2-1.3-.7 0-1.4.2-1.9.7v-1.1c.6-.4 1.4-.6 2.2-.6 1.5 0 2.3.7 2.3 2.2v4h-.2zm-1.3-2.9l-1.3.2c-.4.1-.7.1-.9.3-.2.1-.3.4-.3.7 0 .3.1.5.3.6.2.2.4.2.7.2.4 0 .8-.1 1-.4.3-.3.4-.7.4-1.1v-.5h.1zm6.3 2.9c-.3.1-.6.2-1 .2-1.2 0-1.7-.6-1.7-1.7v-3.4h-1v-1.1h1v-1.4l1.4-.4v1.8h1.4v1.1h-1.4v3c0 .4.1.6.2.8.1.2.3.2.6.2.2 0 .4-.1.6-.2v1.1h-.1zm5.9 0h-1.3v-.9c-.4.7-1 1.1-1.8 1.1-.6 0-1.1-.2-1.4-.5-.3-.3-.5-.7-.5-1.3 0-1.1.7-1.8 2-2l1.8-.3c0-.9-.4-1.3-1.2-1.3-.7 0-1.4.2-1.9.7v-1.1c.6-.4 1.4-.6 2.2-.6 1.5 0 2.3.7 2.3 2.2v4h-.2zm-1.3-2.9l-1.3.2c-.4.1-.7.1-.9.3-.2.1-.3.4-.3.7 0 .3.1.5.3.6.2.2.4.2.7.2.4 0 .8-.1 1-.4.3-.3.4-.7.4-1.1v-.5h.1zM626.7 395.85h-1.4v-5.4c0-.4 0-1 .1-1.6-.1.4-.2.6-.2.8l-2.5 6.3h-1l-2.5-6.2c-.1-.2-.1-.5-.2-.8 0 .3 0 .9 0 1.6v5.4h-1.3v-8.5h2l2.2 5.6c.2.4.3.8.3 1 .1-.4.3-.8.4-1l2.2-5.6h1.9v8.4zm6.6 0H632v-.9c-.4.7-1 1.1-1.8 1.1-.6 0-1.1-.2-1.4-.5-.3-.3-.5-.7-.5-1.3 0-1.1.7-1.8 2-2l1.8-.3c0-.9-.4-1.3-1.2-1.3-.7 0-1.4.2-1.9.7v-1.2c.6-.4 1.4-.6 2.2-.6 1.5 0 2.3.7 2.3 2.2v4.1h-.2zm-1.3-2.9l-1.3.2c-.4 0-.7.1-.9.3-.2.1-.3.4-.3.7 0 .3.1.5.3.6.2.2.4.2.7.2.4 0 .8-.1 1-.4.3-.3.4-.7.4-1.1v-.5h.1zm7.4 2.7c-.5.3-1 .4-1.7.4-.9 0-1.6-.3-2.2-.8-.5-.6-.8-1.3-.8-2.2 0-1 .3-1.8.9-2.4.6-.6 1.4-.9 2.4-.9.5 0 1 .1 1.4.3v1.3c-.4-.3-.9-.5-1.3-.5-.6 0-1 .2-1.4.6-.4.4-.6.9-.6 1.5s.2 1.1.5 1.5c.3.4.8.5 1.4.5.5 0 1-.2 1.4-.5v1.2zm6.8.2h-1.4v-3.3c0-1.2-.4-1.8-1.2-1.8-.4 0-.7.2-1 .5-.3.3-.4.8-.4 1.3v3.2h-1.4v-8.9h1.4v3.9c.5-.8 1.1-1.1 1.9-1.1 1.3 0 2 .8 2 2.4v3.8h.1zm2.4-7.2c-.2 0-.4-.1-.6-.2-.2-.1-.2-.3-.2-.6 0-.2.1-.4.2-.6.2-.1.4-.2.6-.2.2 0 .4.1.6.2.2.1.2.3.2.6 0 .2-.1.4-.2.5-.1.2-.3.3-.6.3zm.7 7.2H648v-6h1.4v6h-.1zm7.3 0h-1.4v-3.4c0-1.1-.4-1.7-1.2-1.7-.4 0-.8.2-1 .5-.3.3-.4.7-.4 1.2v3.4h-1.4v-6h1.4v1c.5-.8 1.1-1.1 1.9-1.1.7 0 1.2.2 1.5.6.3.4.5 1 .5 1.8v3.7h.1zm6.8-2.6h-4.1c0 .6.2 1 .5 1.3.3.3.8.5 1.3.5.6 0 1.2-.2 1.8-.6v1.1c-.5.3-1.3.5-2.2.5-.9 0-1.6-.3-2.1-.8s-.8-1.3-.8-2.3c0-.9.3-1.7.8-2.3.6-.6 1.2-.9 2.1-.9.8 0 1.5.3 1.9.8.4.5.7 1.3.7 2.2v.5h.1zm-1.3-.9c0-.5-.1-.9-.3-1.1-.2-.3-.5-.4-.9-.4s-.7.1-1 .4c-.3.3-.4.7-.5 1.1h2.7zm7.5 3.5h-1.4v-8.9h1.4v8.9zm7-2.6h-4.1c0 .6.2 1 .5 1.3.3.3.8.5 1.3.5.6 0 1.2-.2 1.8-.6v1.1c-.5.3-1.3.5-2.2.5-.9 0-1.6-.3-2.1-.8s-.8-1.3-.8-2.3c0-.9.3-1.7.8-2.3.6-.6 1.2-.9 2.1-.9.9 0 1.5.3 1.9.8.4.5.7 1.3.7 2.2v.5h.1zm-1.3-.9c0-.5-.1-.9-.3-1.1-.2-.3-.5-.4-.9-.4s-.7.1-1 .4c-.3.3-.4.7-.5 1.1h2.7zm7.3 3.5h-1.3v-.9c-.4.7-1 1.1-1.8 1.1-.6 0-1.1-.2-1.4-.5-.3-.3-.5-.7-.5-1.3 0-1.1.7-1.8 2-2l1.8-.3c0-.9-.4-1.3-1.2-1.3-.7 0-1.4.2-1.9.7v-1.2c.6-.4 1.4-.6 2.2-.6 1.5 0 2.3.7 2.3 2.2v4.1h-.2zm-1.3-2.9l-1.3.2c-.4 0-.7.1-.9.3-.2.1-.3.4-.3.7 0 .3.1.5.3.6.2.2.4.2.7.2.4 0 .8-.1 1-.4.3-.3.4-.7.4-1.1v-.5h.1zm6.6-1.8c-.2-.1-.4-.2-.7-.2-.4 0-.7.2-1 .5-.3.4-.4.9-.4 1.5v2.9h-1.4v-6h1.4v1.2c.1-.4.3-.8.6-1 .3-.2.6-.4.9-.4.2 0 .4 0 .6.1v1.4zm6.4 4.7H693v-3.4c0-1.1-.4-1.7-1.2-1.7-.4 0-.8.2-1 .5-.3.3-.4.7-.4 1.2v3.4H689v-6h1.4v1c.4-.8 1.1-1.1 1.9-1.1.7 0 1.2.2 1.5.6.3.4.5 1 .5 1.8v3.7zm2.5-7.2c-.2 0-.4-.1-.6-.2-.2-.1-.2-.3-.2-.6 0-.2.1-.4.2-.6.2-.1.4-.2.6-.2.2 0 .4.1.6.2.2.1.2.3.2.6 0 .2-.1.4-.2.5-.2.2-.4.3-.6.3zm.7 7.2h-1.4v-6h1.4v6zm7.2 0h-1.4v-3.4c0-1.1-.4-1.7-1.2-1.7-.4 0-.8.2-1 .5-.3.3-.4.7-.4 1.2v3.4h-1.4v-6h1.4v1c.4-.8 1.1-1.1 1.9-1.1.7 0 1.2.2 1.5.6.3.4.5 1 .5 1.8v3.7h.1zm7.3-.4c0 2.2-1.1 3.3-3.3 3.3-.8 0-1.5-.1-2-.4v-1.2c.7.4 1.3.6 1.9.6 1.4 0 2.1-.7 2.1-2.1v-.7c-.4.8-1.1 1.1-2 1.1-.7 0-1.3-.3-1.8-.8-.4-.5-.7-1.3-.7-2.2 0-1 .2-1.8.7-2.4.5-.6 1.1-.9 2-.9.8 0 1.4.3 1.8 1v-.8h1.4v5.5h-.1zm-1.4-2.3v-.8c0-.4-.1-.8-.4-1.1-.3-.3-.6-.5-1-.5-.5 0-.9.2-1.2.6-.3.4-.4.9-.4 1.6 0 .6.1 1.1.4 1.4.3.4.7.5 1.1.5.5 0 .8-.2 1.1-.5.3-.2.4-.7.4-1.2zm15.6 2.7h-1.4v-3.3c0-.6-.1-1.1-.3-1.4-.2-.3-.5-.4-.9-.4s-.7.2-.9.5c-.2.4-.4.8-.4 1.3v3.2h-1.4v-3.4c0-1.1-.4-1.7-1.2-1.7-.4 0-.7.2-.9.5-.2.3-.4.8-.4 1.3v3.2H717v-6h1.4v.9c.4-.7 1.1-1.1 1.9-1.1.4 0 .8.1 1.1.3.3.2.5.5.6.9.4-.8 1.1-1.2 2-1.2 1.3 0 2 .8 2 2.4v4h.2zm4.5.2c-.9 0-1.7-.3-2.2-.8-.6-.6-.8-1.3-.8-2.2 0-1 .3-1.8.9-2.4.6-.6 1.4-.9 2.3-.9.9 0 1.7.3 2.2.8.5.5.8 1.3.8 2.3 0 1-.3 1.7-.8 2.3-.7.6-1.5.9-2.4.9zm0-5.2c-.5 0-1 .2-1.3.6-.3.4-.5.9-.5 1.5s.2 1.1.5 1.5c.3.4.7.5 1.3.5.5 0 .9-.2 1.2-.5.3-.4.4-.9.4-1.5 0-.7-.1-1.2-.4-1.5-.2-.4-.6-.6-1.2-.6zm10.1 5h-1.4v-1c-.4.8-1.1 1.2-2 1.2-.7 0-1.3-.3-1.8-.8-.4-.5-.7-1.3-.7-2.2 0-1 .2-1.8.7-2.4.5-.6 1.1-.9 2-.9.8 0 1.4.3 1.8 1v-3.7h1.4v8.8zm-1.4-2.7v-.8c0-.4-.1-.8-.4-1.1-.3-.3-.6-.4-1.1-.4-.5 0-.9.2-1.2.6-.3.4-.4.9-.4 1.6 0 .6.1 1.1.4 1.4.3.4.7.5 1.1.5.5 0 .8-.2 1.1-.5.4-.3.5-.8.5-1.3zm8.3.1h-4.1c0 .6.2 1 .5 1.3.3.3.8.5 1.3.5.6 0 1.2-.2 1.8-.6v1.1c-.5.3-1.3.5-2.2.5-.9 0-1.6-.3-2.1-.8s-.8-1.3-.8-2.3c0-.9.3-1.7.8-2.3.6-.6 1.2-.9 2.1-.9.8 0 1.5.3 1.9.8.4.5.7 1.3.7 2.2v.5h.1zm-1.3-.9c0-.5-.1-.9-.3-1.1-.2-.3-.5-.4-.9-.4s-.7.1-1 .4c-.3.3-.4.7-.5 1.1h2.7zm4.1 3.5h-1.4v-8.9h1.4v8.9zm1.5-.1v-1.3c.5.4 1.1.6 1.7.6.8 0 1.2-.2 1.2-.7 0-.1 0-.3-.1-.3-.1-.1-.2-.2-.3-.3-.1-.1-.3-.1-.4-.2-.2-.1-.3-.1-.5-.2s-.5-.2-.7-.3c-.2-.1-.4-.2-.5-.4-.1-.1-.2-.3-.3-.5-.1-.2-.1-.4-.1-.6 0-.3.1-.5.2-.8.1-.2.3-.4.6-.6.2-.2.5-.3.8-.3.3-.1.6-.1.9-.1.6 0 1.1.1 1.5.3v1.2c-.4-.3-.9-.4-1.5-.4-.2 0-.3 0-.5.1-.1 0-.3.1-.4.1-.1.1-.2.1-.2.2-.1.1-.1.2-.1.3 0 .1 0 .2.1.3.1.1.1.2.2.2.1.1.2.1.4.2s.3.1.5.2c.3.1.5.2.7.3.2.1.4.2.5.4.1.1.3.3.3.5.1.2.1.4.1.6 0 .3-.1.6-.2.8-.1.2-.3.4-.6.6-.2.1-.5.3-.8.3-.3.1-.6.1-1 .1s-1-.1-1.5-.3z"/><path fill="url(#G)" d="M209.4 277.75l-14.9-8.2-15.3 7.4 15.7 8.9 14.5-8.1z" opacity=".15"/><path fill="#EBEBEB" d="M167.2 237.85l-.1 31.4-14.7-8 .1-31.6 14.7 8.2z"/><path fill="#CDCDD0" d="M167.1 237.65v31.6l14.7-8.2v-31.6l-14.7 8.2zM181.8 229.45l-14.7 8.3-14.6-8.1 14.7-8.1 14.6 7.9z"/><path fill="url(#H)" d="M165.9 239.05v2.7l-12.5-7.2v-2.7l12.5 7.2z"/><path fill="url(#I)" d="M165.9 242.25v2.7l-12.5-7.2v-2.7l12.5 7.2z"/><path fill="url(#J)" d="M165.9 245.45v2.7l-12.5-7.1v-2.7l12.5 7.1z"/><path fill="url(#K)" d="M165.9 248.75v2.7l-12.5-7.2v-2.6l12.5 7.1z"/><path fill="url(#L)" d="M165.9 251.95v2.8l-12.5-7.2v-2.7l12.5 7.1z"/><path fill="url(#M)" d="M165.9 255.25v2.7l-12.5-7.1v-2.7l12.5 7.1z"/><path fill="url(#N)" d="M165.9 258.55v2.7l-12.5-7.2v-2.6l12.5 7.1z"/><path fill="url(#O)" d="M165.9 261.75v2.8l-12.5-7.2v-2.7l12.5 7.1z"/><path fill="url(#P)" d="M168.2 238.85v2.7l12.5-7.2v-2.6l-12.5 7.1z"/><path fill="url(#Q)" d="M168.2 242.05v2.7l12.5-7.1v-2.7l-12.5 7.1z"/><path fill="url(#R)" d="M168.2 245.35v2.7l12.5-7.2v-2.6l-12.5 7.1z"/><path fill="url(#S)" d="M168.2 248.55v2.8l12.5-7.2v-2.7l-12.5 7.1z"/><path fill="url(#T)" d="M168.2 251.85v2.7l12.5-7.1v-2.7l-12.5 7.1z"/><path fill="url(#U)" d="M168.2 255.15v2.7l12.5-7.2v-2.6l-12.5 7.1z"/><path fill="url(#V)" d="M168.2 258.35v2.7l12.5-7.1v-2.7l-12.5 7.1z"/><path fill="url(#W)" d="M168.2 261.65v2.7l12.5-7.1v-2.7l-12.5 7.1z"/><path fill="#CDCDD0" d="M167.1 221.55c4.3 2.5 8.5 4.9 12.8 7.4-.2-.1-.5-.2-1-.2l-11.8-6.8c0-.3 0-.4 0-.4zM154.3 228.95c3.8-2.2 7.7-4.4 11.5-6.7.4-.2.9-.5 1.3-.7 0 0 0 .1 0 .3l-11.7 6.8c-.6.1-.9.2-1.1.3z"/><path fill="#F4F4F4" d="M178.9 228.78c0-3.76-5.27-6.82-11.78-6.84-6.52-.02-11.8 3-11.82 6.77 0 3.76 5.26 6.82 11.78 6.84 6.52.02 11.8-3 11.82-6.76z"/><path fill="#EBEBEB" d="M167.1 237.05c-1.7-1-3.4-2-5.1-3-2.6-1.5-5.1-3-7.7-4.5-.1-.1-.2-.1-.2-.2-.1-.2.2-.5 1.3-.6l11.8 6.8c0 .7 0 1.2 0 1.4-.1.1-.1.1-.1.1z"/><path fill="#9B9BA0" d="M179.9 229.65l-1.3.7c-.9.5-1.7 1-2.6 1.5l-1.3.7-1.3.7c-2.1 1.2-4.3 2.5-6.4 3.7 0 0 0 0 0-.1s0-.6 0-1.4l11.7-6.8c1.1.1 1.3.5 1.3.6.1.2 0 .3-.1.4z"/><path fill="#EBEBEB" d="M184.3 263.85l-.1 15.8-12.9-7.6.1-16 12.9 7.8z"/><path fill="#CDCDD0" d="M184.2 263.65v16l12.8-7.9-.1-15.9-12.7 7.8z"/><path fill="#F4F4F4" d="M196.9 255.85l-12.7 7.9-12.9-7.7 12.8-7.9 12.8 7.7z"/><path fill="url(#X)" d="M176.9 262.55v4.6l1.2.8.1-4.7-1.3-.7z"/><path fill="url(#Y)" d="M172.7 260.05l-.1 4.6 1.2.7v-4.6l-1.1-.7z"/><path fill="url(#Z)" d="M179.8 264.25v4.6l1.3.8v-4.7l-1.3-.7z"/><path fill="url(#aa)" d="M174 260.85v4.6l1.2.8v-4.6l-1.2-.8z"/><path fill="url(#ab)" d="M175.5 261.75l-.1 4.6 1.3.7v-4.6l-1.2-.7z"/><path fill="url(#ac)" d="M184 271.35v-4.7l-1.3-.7v4.6l1.3.8z"/><path fill="url(#ad)" d="M181.3 265.15v4.6l1.2.7v-4.6l-1.2-.7z"/><path fill="url(#ae)" d="M178.4 263.45l-.1 4.6 1.3.7v-4.6l-1.2-.7z"/><path fill="url(#af)" d="M176.9 268.35v4.3l1.2.7.1-4.3-1.3-.7z"/><path fill="url(#ag)" d="M172.7 265.85l-.1 4.3 1.2.7v-4.4l-1.1-.6z"/><path fill="url(#ah)" d="M172.7 260.05l-.1 4.6 1.2.7v-4.6l-1.1-.7z"/><path fill="url(#ai)" d="M179.8 270.05v4.3l1.3.7v-4.3l-1.3-.7z"/><path fill="url(#aj)" d="M174 266.65v4.3l1.2.7v-4.3l-1.2-.7z"/><path fill="url(#ak)" d="M175.5 267.45l-.1 4.4 1.3.7v-4.4l-1.2-.7z"/><path fill="url(#al)" d="M184 276.75v-4.3l-1.3-.7v4.3l1.3.7z"/><path fill="url(#am)" d="M181.3 270.85v4.3l1.2.8v-4.4l-1.2-.7z"/><path fill="url(#an)" d="M178.4 269.15l-.1 4.3 1.3.8v-4.4l-1.2-.7z"/><path fill="url(#ao)" d="M191.5 262.55v4.6l-1.2.8v-4.7l1.2-.7z"/><path fill="url(#ap)" d="M195.7 260.05l.1 4.6-1.2.7v-4.6l1.1-.7z"/><path fill="url(#aq)" d="M188.6 264.25v4.6l-1.2.8-.1-4.7 1.3-.7z"/><path fill="url(#ar)" d="M194.4 260.85v4.6l-1.2.8v-4.6l1.2-.8z"/><path fill="url(#as)" d="M193 261.75v4.6l-1.3.7v-4.6l1.3-.7z"/><path fill="url(#at)" d="M184.4 271.35v-4.6l1.3-.8v4.6l-1.3.8z"/><path fill="url(#au)" d="M187.1 265.15v4.6l-1.2.7v-4.6l1.2-.7z"/><path fill="url(#av)" d="M190 263.45l.1 4.6-1.3.7v-4.6l1.2-.7z"/><path fill="url(#aw)" d="M191.5 268.35v4.3l-1.2.7v-4.3l1.2-.7z"/><path fill="url(#ax)" d="M195.7 265.85l.1 4.3-1.2.7v-4.4l1.1-.6z"/><path fill="url(#ay)" d="M188.6 270.05v4.3l-1.2.7-.1-4.3 1.3-.7z"/><path fill="url(#az)" d="M194.4 266.65v4.3l-1.2.7v-4.3l1.2-.7z"/><path fill="url(#aA)" d="M193 267.45v4.4l-1.3.7v-4.4l1.3-.7z"/><path fill="url(#aB)" d="M184.4 276.85v-4.4l1.3-.7v4.3l-1.3.8z"/><path fill="url(#aC)" d="M187.1 270.85v4.3l-1.2.8v-4.4l1.2-.7z"/><path fill="url(#aD)" d="M190 269.15l.1 4.3-1.3.8v-4.4l1.2-.7z"/><path fill="#CDCDD0" d="M184.1 248.35c3.8 2.2 7.8 4.7 11.6 6.9-.1-.1-.4-.2-.7-.2l-10.9-6.5c0-.2 0-.2 0-.2zM172.5 255.45c3.8-2.2 7.8-5 11.6-7.1 0 0 0 .1 0 .2l-10.9 6.7c-.3 0-.5.1-.7.2z"/><path fill="#F4F4F4" d="M195 254.95c-3.4 2-7.6 4.6-11 6.5-3.4-2-7.4-4.3-10.8-6.3 3.4-2 7.5-4.8 10.9-6.7 3.4 2 7.5 4.6 10.9 6.5z"/><path fill="#EBEBEB" d="M184 262.85c-3.8-2.2-7.7-4.5-11.5-6.7-.1-.1-.2-.2-.3-.3 0-.2.1-.5.9-.6l10.8 6.3c0 .6 0 1 0 1.2.1.1.1.1.1.1z"/><path fill="#CDCDD0" d="M195.7 255.95s-10.5 6.3-11.7 6.9c0 0 0-.8 0-1.3l11-6.5c.8.1 1 .5.9.6 0 .1-.1.2-.2.3zM184.1 249.95v-.6l9.5 5.6-.5.4-9-5.4z"/><path fill="#9B9BA0" d="M184.1 249.95v-.6l-9.2 5.6.6.3 8.6-5.3z"/><path fill="#E6E6E6" d="M186.3 104.65l-.1 2.7c0 2.1-1.4 4.2-4.2 5.8-5.6 3.2-14.6 3.2-20.2 0-2.8-1.6-4.2-3.8-4.2-5.9l.1-2.7c0 2.1 1.4 4.3 4.2 5.9 5.6 3.2 14.7 3.2 20.2 0 2.9-1.6 4.2-3.7 4.2-5.8z"/><path fill="url(#aE)" d="M186.9 80.45l-.1 24.3c0 2.2-1.4 4.4-4.3 6.1-5.8 3.4-15.2 3.4-21.1 0-2.9-1.7-4.4-3.9-4.4-6.1l.1-24.3c0 2.2 1.5 4.4 4.4 6.1 5.8 3.4 15.3 3.4 21.1 0 2.9-1.7 4.3-3.9 4.3-6.1z"/><path fill="#E6E6E6" d="M186.9 81.15l-.1 2.8c0 2.2-1.4 4.4-4.3 6.1-5.8 3.4-15.2 3.4-21.1 0-2.9-1.7-4.4-3.9-4.4-6.1l.1-2.8c0 2.2 1.5 4.4 4.4 6.1 5.8 3.4 15.3 3.4 21.1 0 2.9-1.7 4.3-3.9 4.3-6.1z"/><path fill="#fff" d="M182.5 75.65c5.8 3.4 5.9 8.8.1 12.2-5.8 3.4-15.2 3.4-21.1 0-5.8-3.4-5.9-8.8-.1-12.2 5.9-3.4 15.3-3.4 21.1 0z"/><path fill="#E6E6E6" d="M180.1 77.05c4.5 2.6 4.5 6.7.1 9.3-4.4 2.6-11.6 2.6-16.1 0-4.5-2.6-4.5-6.7-.1-9.3 4.4-2.5 11.6-2.5 16.1 0z"/><path fill="url(#aF)" d="M184.7 93.05l.1 7.1-7 15.3c-.3.6-.3 1.4 0 2 .7 1.5 2.9 3.9 9.8 4 7.2.1 9.3-2.8 9.8-4.4.2-.6.2-1.2-.1-1.7l-7.1-15.1.1-7.2s-1.3-1.3-2.9-1.2c-1.5.1-2.8.6-2.7 1.2z"/><path fill="url(#aG)" d="M193 107.65c0-.1-.1-.2-.1-.3-.5-1.2-2.7-2-5.3-2-2.8 0-5.1 1.1-5.5 2.4 0 .1-3.2 7.4-3.2 7.7 0 .1 0 .2 0 .4 0 2.3 3.9 4.1 8.7 4.1 4.8 0 8.7-1.8 8.7-4.1 0 0 0-.3-.1-.6-.8-1.9-3.2-7.6-3.2-7.6z"/><path fill="#0078D4" d="M187.5 119.85c4.8 0 8.7-1.84 8.7-4.1 0-2.27-3.9-4.1-8.7-4.1-4.8 0-8.7 1.83-8.7 4.1 0 2.26 3.9 4.1 8.7 4.1z"/><path fill="url(#aH)" d="M187.5 110.55c3.04 0 5.5-1.17 5.5-2.6 0-1.44-2.46-2.6-5.5-2.6s-5.5 1.16-5.5 2.6c0 1.43 2.46 2.6 5.5 2.6z"/><path fill="#fff" d="M189.5 91.75c1.1.6 1.1 1.7 0 2.3-1.1.6-2.9.6-4 0s-1.1-1.7 0-2.3c1.1-.7 2.9-.7 4 0z"/><path fill="#50E6FF" d="M188.9 92.05c.8.4.8 1.2 0 1.6-.8.4-2 .4-2.8 0-.8-.4-.8-1.2 0-1.6.8-.4 2-.4 2.8 0z"/><path fill="#fff" d="M183.7 116.15l-.1.6c2.3.7 5 .7 7.4.2l-.1-.6c-2.4.5-5 .4-7.2-.2zM184.4 113.25l-.1.6c1.9.5 4 .5 5.9.1l-.2-.5c-1.8.4-3.9.3-5.6-.2zM189.4 110.85l-.1-.5c-1.4.2-2.8.2-4.1-.2l-.1.5c1.3.4 2.8.5 4.3.2z"/><path stroke="#fff" stroke-miterlimit="10" d="M604.1 376.05l-.2-.1" stroke-linecap="round"/><path stroke="#fff" stroke-miterlimit="10" d="M600.4 373.95l-225.8-131.2" stroke-linecap="round" stroke-dasharray="0.5 0.5"/><path stroke="#fff" stroke-miterlimit="10" d="M372.8 241.75l-.2-.1" stroke-linecap="round"/><path fill="#fff" d="M605.3 373.45l-5.2 3.7 8.1 1.1-2.9-4.8z"/><path stroke="#fff" stroke-miterlimit="10" d="M308.2 206.45l-.2-.2" stroke-linecap="round"/><path stroke="#fff" stroke-miterlimit="10" d="M304.6 204.15l-82.4-51.4" stroke-linecap="round" stroke-dasharray="0.5 0.5"/><path stroke="#fff" stroke-miterlimit="10" d="M220.5 151.65l-.3-.1" stroke-linecap="round"/><path fill="#fff" d="M309.3 203.85l-5.2 3.7 8.1 1.1-2.9-4.8z"/><path stroke="#fff" stroke-miterlimit="10" d="M201.1 228.55l.2-.2" stroke-linecap="round"/><path stroke="#fff" stroke-miterlimit="10" d="M204.7 226.35l63.1-38.4" stroke-linecap="round" stroke-dasharray="0.5 0.5"/><path stroke="#fff" stroke-miterlimit="10" d="M269.5 186.95l.2-.2" stroke-linecap="round"/><path fill="url(#aI)" d="M85 101.15l14.9-8.2 15.3 7.4-15.7 8.9-14.5-8.1z" opacity=".15"/><path fill="#fff" d="M314.7 146.55c.4 0 .7-.3.7-.7 0-.4-.3-.7-.7-.7-.4 0-.7.3-.7.7 0 .4.3.7.7.7z"/><path fill="url(#aJ)" d="M186.4 224.45v1.8l.4.2v.2l-.9-.5v-.2l.3.2v-1.5l-.4.1v-.2l.5-.2.1.1z"/><path fill="url(#aK)" d="M187.9 225.35v1.8l.4.2v.2l-1-.6v-.2l.4.3v-1.5l-.4.1-.1-.3.6-.1.1.1z"/><path fill="url(#aL)" d="M189.4 226.15v1.8l.4.3v.2l-1-.6v-.2l.4.2v-1.5l-.4.1-.1-.2.6-.1h.1z"/><path fill="url(#aM)" d="M190.9 227.05v1.8l.4.2v.2l-1-.5v-.2l.4.2v-1.5l-.4.1-.1-.2.6-.2.1.1z"/><path fill="url(#aN)" d="M192.8 228.75c0 .1 0 .3 0 .5s0 .3 0 .4c0 .1-.1.2-.1.3-.1.1-.1.1-.2.1s-.2 0-.3-.1c-.1-.1-.2-.1-.3-.2-.1-.1-.1-.2-.2-.3 0-.1-.1-.3-.1-.4 0-.1 0-.3 0-.4 0-.2 0-.3 0-.4 0-.1.1-.2.1-.3.1-.1.1-.1.2-.1s.2 0 .3.1c.1.1.2.1.3.2.1.1.1.2.2.3.1 0 .1.1.1.3zm-.2.9c.1-.1.1-.3.1-.6 0-.1 0-.2 0-.3l-.7.3c0 .1.1.2.1.3.1.1.1.2.2.2.1.2.2.2.3.1zm-.7-.8l.7-.3c0-.1-.1-.2-.1-.3-.1-.1-.1-.2-.2-.2-.1-.1-.3-.1-.3 0-.1.1-.1.3-.1.6v.1s0 .1 0 .1z"/><path fill="url(#aO)" d="M194.3 229.55c0 .1 0 .3 0 .5s0 .3 0 .4c0 .1-.1.2-.1.3-.1.1-.1.1-.2.1s-.2 0-.3-.1c-.1-.1-.2-.1-.3-.2-.1-.1-.1-.2-.2-.3 0-.1-.1-.3-.1-.4 0-.1 0-.3 0-.4 0-.2 0-.3 0-.4 0-.1.1-.2.1-.3.1-.1.1-.1.2-.1s.2 0 .3.1c.1.1.2.1.3.2.1.1.1.2.2.3.1.1.1.2.1.3zm-.2 1c.1-.1.1-.3.1-.6 0-.1 0-.2 0-.3l-.7.3c0 .1.1.2.1.3.1.1.1.2.2.2.1.2.2.2.3.1zm-.7-.8l.7-.3c0-.1-.1-.2-.1-.3-.1-.1-.1-.2-.2-.2-.1-.1-.3-.1-.3 0-.1.1-.1.3-.1.6v.1s0 0 0 .1z"/><path fill="url(#aP)" d="M195.4 229.65v1.8l.4.2v.2l-1-.5v-.2l.4.2v-1.5l-.4.1-.1-.3.6-.1.1.1z"/><path fill="url(#aQ)" d="M196.9 230.55v1.7l.4.3v.2l-1-.6v-.2l.4.2v-1.5l-.4.1-.1-.2.6-.1.1.1z"/><path fill="url(#aR)" d="M186.9 228.75c0 .1 0 .3 0 .5s0 .3 0 .4c0 .1-.1.2-.1.3-.1.1-.1.1-.2.1s-.2 0-.3-.1c-.1-.1-.2-.1-.3-.2-.1-.1-.1-.2-.2-.3 0-.1-.1-.3-.1-.4 0-.1 0-.3 0-.4 0-.2 0-.3 0-.4 0-.1.1-.2.1-.3.1-.1.1-.1.2-.1s.2 0 .3.1c.1.1.2.1.3.2.1.1.1.2.2.3 0 0 0 .1.1.3zm-.3.9c.1-.1.1-.3.1-.6 0-.1 0-.2 0-.3l-.7.3c0 .1.1.2.1.3.1.1.1.2.2.2.1.2.2.2.3.1zm-.7-.8l.7-.3c0-.1-.1-.2-.1-.3-.1-.1-.1-.2-.2-.2-.1-.1-.3-.1-.3 0-.1.1-.1.3-.1.6v.1s0 .1 0 .1z"/><path fill="url(#aS)" d="M187.9 228.75v1.8l.4.2v.2l-1-.5v-.2l.4.2v-1.5l-.4.1-.1-.2.6-.2.1.1z"/><path fill="url(#aT)" d="M189.8 230.45c0 .1 0 .3 0 .5s0 .3 0 .4c0 .1-.1.2-.1.3-.1.1-.1.1-.2.1s-.2 0-.3-.1c-.1-.1-.2-.1-.3-.2-.1-.1-.1-.2-.2-.3 0-.1-.1-.3-.1-.4 0-.1 0-.3 0-.4 0-.2 0-.3 0-.4 0-.1.1-.2.1-.3.1-.1.1-.1.2-.1s.2 0 .3.1c.1.1.2.1.3.2.1.1.1.2.2.3.1 0 .1.1.1.3zm-.2.9c.1-.1.1-.3.1-.6 0-.1 0-.2 0-.3l-.7.3c0 .1.1.2.1.3.1.1.1.2.2.2.1.2.2.2.3.1zm-.7-.8l.7-.3c0-.1-.1-.2-.1-.3-.1-.1-.1-.2-.2-.2-.1-.1-.3-.1-.3 0-.1.1-.1.3-.1.6v.1s0 .1 0 .1z"/><path fill="url(#aU)" d="M191.3 231.25c0 .1 0 .3 0 .5s0 .3 0 .4c0 .1-.1.2-.1.3-.1.1-.1.1-.2.1s-.2 0-.3-.1c-.1-.1-.2-.1-.3-.2-.1-.1-.1-.2-.2-.3 0-.1-.1-.3-.1-.4 0-.1 0-.3 0-.4 0-.2 0-.3 0-.4 0-.1.1-.2.1-.3.1-.1.1-.1.2-.1s.2 0 .3.1c.1.1.2.1.3.2.1.1.1.2.2.3.1.1.1.2.1.3zm-.2 1c.1-.1.1-.3.1-.6 0-.1 0-.2 0-.3l-.7.3c0 .1.1.2.1.3.1.1.1.2.2.2.1.2.2.2.3.1zm-.7-.8l.7-.3c0-.1-.1-.2-.1-.3-.1-.1-.1-.2-.2-.2-.1-.1-.3-.1-.3 0-.1.1-.1.3-.1.6v.1s0 0 0 .1z"/><path fill="url(#aV)" d="M192.4 231.35v1.8l.4.2v.2l-1-.5v-.2l.4.2v-1.5l-.4.1-.1-.2.6-.2.1.1z"/><path fill="url(#aW)" d="M193.9 232.25v1.8l.4.2v.2l-1-.6v-.2l.4.2v-1.5l-.4.1-.1-.2.6-.1.1.1z"/><path fill="url(#aX)" d="M195.4 233.05v1.8l.4.2v.2l-1-.5v-.2l.4.2v-1.5l-.4.1-.1-.2.5-.2.2.1z"/><path fill="url(#aY)" d="M196.9 233.95v1.8l.4.2v.2l-1-.6v-.2l.4.3v-1.5l-.4.1-.1-.3.5-.1.2.1z"/><path fill="url(#aZ)" d="M186.4 231.35v1.8l.4.2v.2l-1-.6v-.2l.4.3v-1.5l-.4.1-.1-.3.6-.1.1.1z"/><path fill="url(#ba)" d="M187.9 232.15v1.8l.4.3v.2l-1-.6v-.2l.4.2v-1.5l-.4.1-.1-.2.6-.1h.1z"/><path fill="url(#bb)" d="M189.8 233.85c0 .1 0 .3 0 .5s0 .3 0 .4c0 .1-.1.2-.1.3-.1.1-.1.1-.2.1s-.2 0-.3-.1c-.1-.1-.2-.1-.3-.2-.1-.1-.1-.2-.2-.3 0-.1-.1-.2-.1-.4 0-.1 0-.3 0-.4 0-.2 0-.3 0-.4 0-.1.1-.2.1-.3.1-.1.1-.1.2-.1s.2 0 .3.1c.1.1.2.1.3.2.1.1.1.2.2.3.1 0 .1.2.1.3zm-.2.9c.1-.1.1-.3.1-.6 0-.1 0-.2 0-.3l-.7.3c0 .1.1.2.1.3.1.1.1.2.2.2.1.2.2.2.3.1zm-.7-.7l.7-.3c0-.1-.1-.2-.1-.3-.1-.1-.1-.2-.2-.2-.1-.1-.3-.1-.3 0-.1.1-.1.3-.1.6v.1s0 0 0 .1z"/><path fill="url(#bc)" d="M190.9 233.95v1.8l.4.2v.2l-1-.6v-.2l.4.3v-1.6l-.4.1-.1-.2.6-.1.1.1z"/><path fill="url(#bd)" d="M192.4 234.75v1.8l.4.2v.3l-1-.6v-.2l.4.2v-1.5l-.4.1-.1-.2.6-.2.1.1z"/><path fill="url(#be)" d="M194.3 236.45c0 .1 0 .3 0 .5s0 .3 0 .4c0 .1-.1.2-.1.3-.1.1-.1.1-.2.1s-.2 0-.3-.1c-.1-.1-.2-.1-.3-.2-.1-.1-.1-.2-.2-.3 0-.1-.1-.2-.1-.4 0-.1 0-.3 0-.4 0-.2 0-.3 0-.4 0-.1.1-.2.1-.3.1-.1.1-.1.2-.1s.2 0 .3.1c.1.1.2.1.3.2.1.1.1.2.2.3.1 0 .1.2.1.3zm-.3.9c.1-.1.1-.3.1-.6 0-.1 0-.2 0-.3l-.7.3c0 .1.1.2.1.3.1.1.1.2.2.2.2.2.3.2.3.1zm-.7-.8l.7-.3c0-.1-.1-.2-.1-.3-.1-.1-.1-.2-.2-.2-.1-.1-.3-.1-.3 0-.1.1-.1.3-.1.6v.1c0 .1 0 .1 0 .1z"/><path fill="url(#bf)" d="M195.4 236.55v1.7l.4.3v.2l-1-.6v-.2l.4.2v-1.5l-.4.1-.1-.2.5-.1.2.1z"/><path fill="url(#bg)" d="M196.9 237.35v1.8l.4.2-.1.2-.9-.5v-.2l.4.2v-1.5l-.4.1-.1-.2.5-.2.2.1z"/><path fill="url(#bh)" d="M186.8 235.55c0 .1 0 .3 0 .5s0 .3 0 .4c0 .1-.1.2-.1.3-.1.1-.1.1-.2.1s-.2 0-.3-.1c-.1-.1-.2-.1-.3-.2-.1-.1-.1-.2-.2-.3 0-.1-.1-.2-.1-.4 0-.1 0-.3 0-.4 0-.2 0-.3 0-.4 0-.1.1-.2.1-.3.1-.1.1-.1.2-.1s.2 0 .3.1c.1.1.2.1.3.2.1.1.1.2.2.3.1 0 .1.2.1.3zm-.2.9c.1-.1.1-.3.1-.6 0-.1 0-.2 0-.3l-.7.3c0 .1.1.2.1.3.1.1.1.2.2.2.1.2.2.2.3.1zm-.7-.7l.7-.3c0-.1-.1-.2-.1-.3-.1-.1-.1-.2-.2-.2-.1-.1-.3-.1-.3 0-.1.1-.1.3-.1.6v.1s0 0 0 .1z"/><path fill="url(#bi)" d="M187.9 235.65v1.8l.4.2v.2l-1-.6v-.2l.4.3v-1.5h-.4l-.1-.2.6-.1.1.1z"/><path fill="url(#bj)" d="M189.4 236.45v1.8l.4.3v.2l-1-.6v-.2l.4.2v-1.5l-.4.1-.1-.2.6-.1h.1z"/><path fill="url(#bk)" d="M190.9 237.35v1.8l.4.2v.2l-1-.5v-.2l.4.2v-1.5l-.4.1-.1-.2.6-.2.1.1z"/><path fill="url(#bl)" d="M192.8 239.05c0 .1 0 .3 0 .5s0 .3 0 .4c0 .1-.1.2-.1.3-.1.1-.1.1-.2.1s-.2 0-.3-.1c-.1-.1-.2-.1-.3-.2-.1-.1-.1-.2-.2-.3 0-.1-.1-.2-.1-.4 0-.1 0-.3 0-.4 0-.2 0-.3 0-.4 0-.1.1-.2.1-.3.1-.1.1-.1.2-.1s.2 0 .3.1c.1.1.2.1.3.2.1.1.1.2.2.3.1 0 .1.1.1.3zm-.3.9c.1-.1.1-.3.1-.6 0-.1 0-.2 0-.3l-.7.3c0 .1.1.2.1.3.1.1.1.2.2.2.2.2.3.2.3.1zm-.7-.8l.7-.3c0-.1-.1-.2-.1-.3-.1-.1-.1-.2-.2-.2-.1-.1-.3-.1-.3 0-.1.1-.1.3-.1.6v.1s0 .1 0 .1z"/><path fill="url(#bm)" d="M194.3 239.85c0 .1 0 .3 0 .5s0 .3 0 .4c0 .1-.1.2-.1.3-.1.1-.1.1-.2.1s-.2 0-.3-.1c-.1-.1-.2-.1-.3-.2-.1-.1-.1-.2-.2-.3 0-.1-.1-.2-.1-.4 0-.1 0-.3 0-.4 0-.2 0-.3 0-.4 0-.1.1-.2.1-.3.1-.1.1-.1.2-.1s.2 0 .3.1c.1.1.2.1.3.2.1.1.1.2.2.3 0 .1.1.2.1.3zm-.3.9c.1-.1.1-.3.1-.6 0-.1 0-.2 0-.3l-.7.3c0 .1.1.2.1.3.1.1.1.2.2.2.2.3.3.3.3.1zm-.7-.7l.7-.3c0-.1-.1-.2-.1-.3-.1-.1-.1-.2-.2-.2-.1-.1-.3-.1-.3 0-.1.1-.1.3-.1.6v.1s0 0 0 .1z"/><path fill="url(#bn)" d="M195.8 240.75c0 .1 0 .3 0 .5s0 .3 0 .4c0 .1-.1.2-.1.3-.1.1-.1.1-.2.1s-.2 0-.3-.1c-.1-.1-.2-.1-.3-.2-.1-.1-.1-.2-.2-.3-.1-.1-.1-.2-.1-.4 0-.1 0-.3 0-.4 0-.2 0-.3 0-.4 0-.1.1-.2.1-.3 0-.1.1-.1.2-.1s.2 0 .3.1c.1.1.2.1.3.2.1.1.1.2.2.3 0 0 .1.1.1.3zm-.3.9c.1-.1.1-.3.1-.6 0-.1 0-.2 0-.3l-.7.3c0 .1.1.2.1.3.1.1.1.2.2.2.2.2.3.2.3.1zm-.7-.8l.7-.3c0-.1-.1-.2-.1-.3-.1-.1-.1-.2-.2-.2-.1-.1-.3-.1-.3 0-.1.1-.1.3-.1.6v.1s0 .1 0 .1z"/><path fill="url(#bo)" d="M196.9 240.75v1.8l.3.3v.2l-.9-.6v-.2l.4.2v-1.5l-.4.1-.1-.2.5-.1h.2z"/><path fill="url(#bp)" d="M186.4 238.15v1.8l.4.3v.2l-1-.6v-.2l.4.2v-1.5l-.4.1-.1-.2.6-.1h.1z"/><path fill="url(#bq)" d="M188.3 239.85c0 .1 0 .3 0 .5s0 .3 0 .4c0 .1-.1.2-.1.3-.1.1-.1.1-.2.1s-.2 0-.3-.1c-.1-.1-.2-.1-.3-.2-.1-.1-.1-.2-.2-.3 0-.1-.1-.3-.1-.4 0-.1 0-.3 0-.4 0-.2 0-.3 0-.4 0-.1.1-.2.1-.3.1-.1.1-.1.2-.1s.2 0 .3.1c.1.1.2.1.3.2.1.1.1.2.2.3.1 0 .1.2.1.3zm-.3.9c.1-.1.1-.3.1-.6 0-.1 0-.2 0-.3l-.7.3c0 .1.1.2.1.3.1.1.1.2.2.2.2.2.3.2.3.1zm-.7-.7l.7-.3c0-.1-.1-.2-.1-.3-.1-.1-.1-.2-.2-.2-.1-.1-.3-.1-.3 0-.1.1-.1.3-.1.6v.1s0 0 0 .1z"/><path fill="url(#br)" d="M189.8 240.75c0 .1 0 .3 0 .5s0 .3 0 .4c0 .1-.1.2-.1.3-.1.1-.1.1-.2.1s-.2 0-.3-.1c-.1-.1-.2-.1-.3-.2-.1-.1-.1-.2-.2-.3 0-.1-.1-.3-.1-.4 0-.1 0-.3 0-.4 0-.2 0-.3 0-.4 0-.1.1-.2.1-.3.1-.1.1-.1.2-.1s.2 0 .3.1c.1.1.2.1.3.2.1.1.1.2.2.3.1 0 .1.1.1.3zm-.3.9c.1-.1.1-.3.1-.6 0-.1 0-.2 0-.3l-.7.3c0 .1.1.2.1.3.1.1.1.2.2.2.2.2.3.2.3.1zm-.7-.8l.7-.3c0-.1-.1-.2-.1-.3-.1-.1-.1-.2-.2-.2-.1-.1-.3-.1-.3 0-.1.1-.1.3-.1.6v.1s0 .1 0 .1z"/><path fill="url(#bs)" d="M191.3 241.55c0 .1 0 .3 0 .5s0 .3 0 .4c0 .1-.1.2-.1.3-.1.1-.1.1-.2.1s-.2 0-.3-.1c-.1-.1-.2-.1-.3-.2-.1-.1-.1-.2-.2-.3 0-.1-.1-.3-.1-.4 0-.1 0-.3 0-.4 0-.2 0-.3 0-.4 0-.1.1-.2.1-.3.1-.1.1-.1.2-.1s.2 0 .3.1c.1.1.2.1.3.2.1.1.1.2.2.3 0 .1.1.2.1.3zm-.3 1c.1-.1.1-.3.1-.6 0-.1 0-.2 0-.3l-.7.3c0 .1.1.2.1.3.1.1.1.2.2.2.2.2.3.2.3.1zm-.7-.8l.7-.3c0-.1-.1-.2-.1-.3-.1-.1-.1-.2-.2-.2-.1-.1-.3-.1-.3 0-.1.1-.1.3-.1.6v.1s0 0 0 .1z"/><path fill="url(#bt)" d="M192.8 242.45c0 .1 0 .3 0 .5s0 .3 0 .4c0 .1-.1.2-.1.3-.1.1-.1.1-.2.1s-.2 0-.3-.1c-.1-.1-.2-.1-.3-.2-.1-.1-.1-.2-.2-.3 0-.1-.1-.3-.1-.4 0-.1 0-.3 0-.4 0-.2 0-.3 0-.4 0-.1.1-.2.1-.3.1-.1.1-.1.2-.1s.2 0 .3.1c.1.1.2.1.3.2.1.1.1.2.2.3 0 0 .1.2.1.3zm-.3.9c.1-.1.1-.3.1-.6 0-.1 0-.2 0-.3l-.7.3c0 .1.1.2.1.3.1.1.1.2.2.2.2.2.3.2.3.1zm-.7-.8l.7-.3c0-.1-.1-.2-.1-.3-.1-.1-.1-.2-.2-.2-.1-.1-.3-.1-.3 0-.1.1-.1.3-.1.6v.1c0 .1 0 .1 0 .1z"/><path fill="url(#bu)" d="M194.3 243.35c0 .1 0 .3 0 .5s0 .3 0 .4c0 .1-.1.2-.1.3-.1.1-.1.1-.2.1s-.2 0-.3-.1c-.1-.1-.2-.1-.3-.2-.1-.1-.1-.2-.2-.3 0-.1-.1-.3-.1-.4 0-.1 0-.3 0-.4 0-.2 0-.3 0-.4 0-.1.1-.2.1-.3.1-.1.1-.1.2-.1s.2 0 .3.1c.1.1.2.1.3.2.1.1.1.2.2.3 0 0 .1.1.1.3zm-.3.9c.1-.1.1-.3.1-.6 0-.1 0-.2 0-.3l-.7.3c0 .1.1.2.1.3.1.1.1.2.2.2.2.2.3.2.3.1zm-.7-.8l.7-.3c0-.1-.1-.2-.1-.3-.1-.1-.1-.2-.2-.2-.1-.1-.3-.1-.3 0-.1.1-.1.3-.1.6v.1s0 .1 0 .1z"/><path fill="url(#bv)" d="M195.8 244.15c0 .1 0 .3 0 .5s0 .3 0 .4c0 .1-.1.2-.1.3-.1.1-.1.1-.2.1s-.2 0-.3-.1c-.1-.1-.2-.1-.3-.2-.1-.1-.1-.2-.2-.3-.1-.1-.1-.3-.1-.4 0-.1 0-.3 0-.4 0-.2 0-.3 0-.4 0-.1.1-.2.1-.3 0-.1.1-.1.2-.1s.2 0 .3.1c.1.1.2.1.3.2.1.1.1.2.2.3 0 .1.1.2.1.3zm-.3.9c.1-.1.1-.3.1-.6 0-.1 0-.2 0-.3l-.7.3c0 .1.1.2.1.3.1.1.1.2.2.2.1.3.3.2.3.1zm-.7-.7l.7-.3c0-.1-.1-.2-.1-.3-.1-.1-.1-.2-.2-.2-.1-.1-.3-.1-.3 0-.1.1-.1.3-.1.6v.1s0 0 0 .1z"/><path fill="url(#bw)" d="M197.3 245.05c0 .1 0 .3 0 .5s0 .3 0 .4c0 .1-.1.2-.1.3-.1.1-.1.1-.2.1s-.2 0-.3-.1c-.1-.1-.2-.1-.3-.2-.1-.1-.1-.2-.2-.3-.1-.1-.1-.3-.1-.4 0-.1 0-.3 0-.4 0-.2 0-.3 0-.4 0-.1.1-.2.1-.3.1-.1.1-.1.2-.1s.2 0 .3.1c.1.1.2.1.3.2.1.1.1.2.2.3 0 0 .1.1.1.3zm-.3.9c.1-.1.1-.3.1-.6 0-.1 0-.2 0-.3l-.7.3c0 .1.1.2.1.3.1.1.1.2.2.2.1.2.2.2.3.1zm-.7-.8l.7-.3c0-.1-.1-.2-.1-.3-.1-.1-.1-.2-.2-.2-.1-.1-.3-.1-.3 0-.1.1-.1.3-.1.6v.1s0 .1 0 .1z"/><path fill="url(#bx)" d="M186.8 242.45c0 .1 0 .3 0 .5s0 .3 0 .4c0 .1-.1.2-.1.3-.1.1-.1.1-.2.1s-.2 0-.3-.1c-.1-.1-.2-.1-.3-.2-.1-.1-.1-.2-.2-.3 0-.1-.1-.3-.1-.4 0-.1 0-.3 0-.4 0-.2 0-.3 0-.4 0-.1.1-.2.1-.3.1-.1.1-.1.2-.1s.2 0 .3.1c.1.1.2.1.3.2.1.1.1.2.2.3.1 0 .1.1.1.3zm-.3.9c.1-.1.1-.3.1-.6 0-.1 0-.2 0-.3l-.7.3c0 .1.1.2.1.3.1.1.1.2.2.2.2.2.3.2.3.1zm-.7-.8l.7-.3c0-.1-.1-.2-.1-.3-.1-.1-.1-.2-.2-.2-.1-.1-.3-.1-.3 0-.1.1-.1.3-.1.6v.1s0 .1 0 .1z"/><path fill="url(#by)" d="M187.9 242.45v1.8l.4.3v.2l-1-.6v-.2l.4.2v-1.5l-.4.1-.1-.2.5-.1h.2z"/><path fill="url(#bz)" d="M189.4 243.35v1.8l.4.2v.2l-1-.5v-.2l.4.2v-1.5l-.4.1-.1-.2.5-.2.2.1z"/><path fill="url(#bA)" d="M190.9 244.25v1.8l.3.2v.2l-.9-.6v-.2l.4.2v-1.5l-.4.1-.1-.2.5-.1.2.1z"/><path fill="url(#bB)" d="M192.8 245.85c0 .1 0 .3 0 .5s0 .3 0 .4c0 .1-.1.2-.1.3-.1.1-.1.1-.2.1s-.2 0-.3-.1c-.1-.1-.2-.1-.3-.2-.1-.1-.1-.2-.2-.3 0-.1-.1-.3-.1-.4 0-.1 0-.3 0-.4 0-.2 0-.3 0-.4 0-.1.1-.2.1-.3.1-.1.1-.1.2-.1s.2 0 .3.1c.1.1.2.1.3.2.1.1.1.2.2.3 0 .1.1.2.1.3zm-.3.9c.1-.1.1-.3.1-.6 0-.1 0-.2 0-.3l-.7.3c0 .1.1.2.1.3.1.1.1.2.2.2.1.3.3.3.3.1zm-.7-.7l.7-.3c0-.1-.1-.2-.1-.3-.1-.1-.1-.2-.2-.2-.1-.1-.3-.1-.3 0-.1.1-.1.3-.1.6v.1s0 0 0 .1z"/><path fill="url(#bC)" d="M194.3 246.75c0 .1 0 .3 0 .5s0 .3 0 .4c0 .1-.1.2-.1.3-.1.1-.1.1-.2.1s-.2 0-.3-.1c-.1-.1-.2-.1-.3-.2-.1-.1-.1-.2-.2-.3 0-.1-.1-.3-.1-.4 0-.1 0-.3 0-.4 0-.2 0-.3 0-.4 0-.1.1-.2.1-.3.1-.1.1-.1.2-.1s.2 0 .3.1c.1.1.2.1.3.2.1.1.1.2.2.3 0 0 .1.1.1.3zm-.3.9c.1-.1.1-.3.1-.6 0-.1 0-.2 0-.3l-.7.3c0 .1.1.2.1.3.1.1.1.2.2.2.1.2.2.2.3.1zm-.7-.8l.7-.3c0-.1-.1-.2-.1-.3-.1-.1-.1-.2-.2-.2-.1-.1-.3-.1-.3 0-.1.1-.1.3-.1.6v.1s0 .1 0 .1z"/><path fill="url(#bD)" d="M195.4 246.75l-.1 1.8.4.3v.2l-.9-.6v-.2l.4.2v-1.5l-.4.1-.1-.2.5-.1h.2z"/><path fill="url(#bE)" d="M197.3 248.45c0 .1 0 .3 0 .5s0 .3 0 .4c0 .1-.1.2-.1.3-.1.1-.1.1-.2.1s-.2 0-.3-.1c-.1-.1-.2-.1-.3-.2-.1-.1-.1-.2-.2-.3-.1-.1-.1-.3-.1-.4 0-.1 0-.3 0-.4 0-.2 0-.3 0-.4 0-.1.1-.2.1-.3.1-.1.1-.1.2-.1s.2 0 .3.1c.1.1.2.1.3.2.1.1.1.2.2.3 0 0 0 .2.1.3zm-.3.9c.1-.1.1-.3.1-.6 0-.1 0-.2 0-.3l-.7.3c0 .1.1.2.1.3.1.1.1.2.2.2.1.2.2.2.3.1zm-.7-.7l.7-.3c0-.1-.1-.2-.1-.3-.1-.1-.1-.2-.2-.2-.1-.1-.3-.1-.3 0-.1.1-.1.3-.1.6v.1s0 0 0 .1z"/><path fill="#50E6FF" d="M677.3 311.45l-11.4-6.5 11.3-6.6 11.3 6.6-11.2 6.5z"/><path fill="#0078D4" d="M665.8 304.95l.1 13 11.3 6.6v-13.1l-11.4-6.5z"/><path fill="#1E9FE0" d="M677.3 311.45v13.1l11.3-6.5-.1-13.1-11.2 6.5z"/><path fill="#50E6FF" d="M654.6 324.55l-11.3-6.6 11.3-6.5 11.3 6.5-11.3 6.6z"/><path fill="#0078D4" d="M643.3 317.95l.1 13.1 11.3 6.5-.1-13-11.3-6.6z"/><path fill="#1E9FE0" d="M654.6 324.55l.1 13 11.3-6.5-.1-13.1-11.3 6.6z"/><path fill="#50E6FF" d="M700 324.55l-11.4-6.5 11.3-6.6 11.3 6.6-11.2 6.5z"/><path fill="#0078D4" d="M688.6 318.05l.1 13.1 11.3 6.5v-13.1l-11.4-6.5z"/><path fill="#1E9FE0" d="M700 324.55v13.1l11.3-6.5-.1-13.1-11.2 6.5z"/><path stroke="#84ECFD" stroke-width="1.412" stroke-miterlimit="10" d="M668.3 332.55l-8.1-4.9M686.8 332.35l7.7-4.7" stroke-linecap="round" stroke-linejoin="round"/><path fill="#50E6FF" d="M677.4 337.65l-11.3-6.6 11.2-6.5 11.4 6.6-11.3 6.5z"/><path fill="#0078D4" d="M666 331.05v13.1l11.4 6.6-.1-13.1-11.3-6.6z"/><path fill="#1E9FE0" d="M677.4 337.65l.1 13.1 11.3-6.6-.1-13-11.3 6.5z"/><path stroke="#84ECFD" stroke-width="1.412" stroke-miterlimit="10" d="M699.8 302.85v14.6M654.4 302.85v14.6" stroke-linecap="round" stroke-linejoin="round"/><path fill="#50E6FF" d="M677 285.25l-11.3-6.5 11.3-6.5 11.3 6.5-11.3 6.5z"/><path fill="#0078D4" d="M665.7 278.75l.1 13.1 11.3 6.5-.1-13.1-11.3-6.5z"/><path fill="#1E9FE0" d="M677 285.25l.1 13.1 11.3-6.5-.1-13.1-11.3 6.5z"/><path stroke="#84ECFD" stroke-width="1.412" stroke-miterlimit="10" d="M690.5 292.85l-7.9-4.4M664.1 292.95l7.6-4.5" stroke-linecap="round" stroke-linejoin="round"/><path fill="#50E6FF" d="M654.5 298.35l-11.4-6.6 11.3-6.5 11.4 6.6-11.3 6.5z"/><path fill="#0078D4" d="M643.1 291.75l.1 13.1 11.4 6.6-.1-13.1-11.4-6.6z"/><path fill="#1E9FE0" d="M654.5 298.35l.1 13.1 11.2-6.5v-13.1l-11.3 6.5z"/><path fill="#50E6FF" d="M699.8 298.45l-11.3-6.6 11.3-6.5 11.3 6.5-11.3 6.6z"/><path fill="#0078D4" d="M688.5 291.85v13.1l11.4 6.5-.1-13-11.3-6.6z"/><path fill="#1E9FE0" d="M699.8 298.45l.1 13 11.3-6.5-.1-13.1-11.3 6.6z"/><path fill="#50E6FF" d="M677.3 311.45l-11.4-6.5 11.3-6.6 11.3 6.6-11.2 6.5z"/><path fill="#0078D4" d="M665.8 304.95l.1 13 11.3 6.6v-13.1l-11.4-6.5z"/><path fill="#1E9FE0" d="M677.3 311.45v13.1l11.3-6.5-.1-13.1-11.2 6.5z"/><defs><filter id="a" width="527.308" height="395.111" x="320.709" y=".326" filterUnits="userSpaceOnUse" color-interpolation-filters="sRGB"><feFlood flood-opacity="0" result="BackgroundImageFix"/><feBlend in="SourceGraphic" in2="BackgroundImageFix" result="shape"/><feGaussianBlur stdDeviation="50" result="effect1_foregroundBlur"/></filter><filter id="b" width="451.04" height="366.592" x="307.179" y="23.533" filterUnits="userSpaceOnUse" color-interpolation-filters="sRGB"><feFlood flood-opacity="0" result="BackgroundImageFix"/><feBlend in="SourceGraphic" in2="BackgroundImageFix" result="shape"/><feGaussianBlur stdDeviation="24" result="effect1_foregroundBlur"/></filter><linearGradient id="c" x1="534.492" x2="542.139" y1="260.585" y2="269.249" gradientUnits="userSpaceOnUse"><stop/><stop offset=".822" stop-opacity="0"/></linearGradient><linearGradient id="d" x1="561.847" x2="569.494" y1="244.734" y2="253.398" gradientUnits="userSpaceOnUse"><stop/><stop offset=".822" stop-opacity="0"/></linearGradient><linearGradient id="e" x1="587.588" x2="595.235" y1="229.163" y2="237.827" gradientUnits="userSpaceOnUse"><stop/><stop offset=".822" stop-opacity="0"/></linearGradient><linearGradient id="f" x1="614.872" x2="622.52" y1="244.453" y2="253.117" gradientUnits="userSpaceOnUse"><stop/><stop offset=".822" stop-opacity="0"/></linearGradient><linearGradient id="g" x1="587.658" x2="595.305" y1="260.235" y2="268.899" gradientUnits="userSpaceOnUse"><stop/><stop offset=".822" stop-opacity="0"/></linearGradient><linearGradient id="h" x1="561.496" x2="569.143" y1="275.666" y2="284.33" gradientUnits="userSpaceOnUse"><stop/><stop offset=".822" stop-opacity="0"/></linearGradient><linearGradient id="i" x1="614.802" x2="622.449" y1="275.806" y2="284.47" gradientUnits="userSpaceOnUse"><stop/><stop offset=".822" stop-opacity="0"/></linearGradient><linearGradient id="j" x1="641.456" x2="649.103" y1="259.744" y2="268.408" gradientUnits="userSpaceOnUse"><stop/><stop offset=".822" stop-opacity="0"/></linearGradient><linearGradient id="k" x1="508.178" x2="515.825" y1="245.553" y2="254.217" gradientUnits="userSpaceOnUse"><stop/><stop offset=".822" stop-opacity="0"/></linearGradient><linearGradient id="l" x1="534.37" x2="542.017" y1="229.869" y2="238.533" gradientUnits="userSpaceOnUse"><stop/><stop offset=".822" stop-opacity="0"/></linearGradient><linearGradient id="m" x1="561.895" x2="569.542" y1="214.029" y2="222.692" gradientUnits="userSpaceOnUse"><stop/><stop offset=".822" stop-opacity="0"/></linearGradient><linearGradient id="n" x1="507.419" x2="512.987" y1="234.128" y2="241.402" gradientUnits="userSpaceOnUse"><stop/><stop offset=".822" stop-opacity="0"/></linearGradient><linearGradient id="o" x1="430.336" x2="456.84" y1="214.257" y2="214.257" gradientUnits="userSpaceOnUse"><stop/><stop offset=".822" stop-opacity="0"/></linearGradient><linearGradient id="p" x1="457.28" x2="483.784" y1="197.204" y2="197.204" gradientUnits="userSpaceOnUse"><stop/><stop offset=".822" stop-opacity="0"/></linearGradient><linearGradient id="q" x1="483.541" x2="510.045" y1="181.857" y2="181.857" gradientUnits="userSpaceOnUse"><stop/><stop offset=".822" stop-opacity="0"/></linearGradient><linearGradient id="r" x1="455.532" x2="482.036" y1="164.748" y2="164.748" gradientUnits="userSpaceOnUse"><stop/><stop offset=".822" stop-opacity="0"/></linearGradient><linearGradient id="s" x1="428.76" x2="455.264" y1="180.607" y2="180.607" gradientUnits="userSpaceOnUse"><stop/><stop offset=".822" stop-opacity="0"/></linearGradient><linearGradient id="t" x1="400.664" x2="427.168" y1="195.2" y2="195.2" gradientUnits="userSpaceOnUse"><stop/><stop offset=".822" stop-opacity="0"/></linearGradient><linearGradient id="u" x1="669.039" x2="723.933" y1="354.753" y2="354.753" gradientUnits="userSpaceOnUse"><stop/><stop offset=".822" stop-opacity="0"/></linearGradient><radialGradient id="v" cx="0" cy="0" r="1" gradientUnits="userSpaceOnUse" gradientTransform="matrix(-40.316 88.403 -88.403 -40.316 694.066 277.042)"><stop offset=".017" stop-color="#50E6FF"/><stop offset=".105" stop-color="#0078D4"/><stop offset="1" stop-color="#0078D4" stop-opacity="0"/></radialGradient><linearGradient id="w" x1="660.245" x2="667.892" y1="332.051" y2="340.715" gradientUnits="userSpaceOnUse"><stop/><stop offset=".822" stop-opacity="0"/></linearGradient><linearGradient id="x" x1="659.853" x2="667.501" y1="306.102" y2="314.766" gradientUnits="userSpaceOnUse"><stop/><stop offset=".822" stop-opacity="0"/></linearGradient><linearGradient id="y" x1="683.158" x2="690.805" y1="292.98" y2="301.644" gradientUnits="userSpaceOnUse"><stop/><stop offset=".822" stop-opacity="0"/></linearGradient><linearGradient id="z" x1="705.484" x2="713.131" y1="306.2" y2="314.864" gradientUnits="userSpaceOnUse"><stop/><stop offset=".822" stop-opacity="0"/></linearGradient><linearGradient id="A" x1="682.963" x2="690.61" y1="319.223" y2="327.887" gradientUnits="userSpaceOnUse"><stop/><stop offset=".822" stop-opacity="0"/></linearGradient><linearGradient id="B" x1="705.68" x2="713.327" y1="332.247" y2="340.911" gradientUnits="userSpaceOnUse"><stop/><stop offset=".822" stop-opacity="0"/></linearGradient><linearGradient id="C" x1="683.06" x2="690.707" y1="345.466" y2="354.13" gradientUnits="userSpaceOnUse"><stop/><stop offset=".822" stop-opacity="0"/></linearGradient><linearGradient id="D" x1="161.857" x2="175.976" y1="256.213" y2="272.208" gradientUnits="userSpaceOnUse"><stop/><stop offset=".822" stop-opacity="0"/></linearGradient><linearGradient id="E" x1="158.927" x2="188.39" y1="109.742" y2="109.742" gradientUnits="userSpaceOnUse"><stop/><stop offset=".822" stop-opacity="0"/></linearGradient><linearGradient id="F" x1="178.106" x2="199.091" y1="117.983" y2="117.983" gradientUnits="userSpaceOnUse"><stop/><stop offset=".822" stop-opacity="0"/></linearGradient><linearGradient id="G" x1="187.246" x2="202.294" y1="269.226" y2="286.275" gradientUnits="userSpaceOnUse"><stop/><stop offset=".822" stop-opacity="0"/></linearGradient><linearGradient id="H" x1="160.532" x2="159.637" y1="267.824" y2="235.404" gradientUnits="userSpaceOnUse"><stop stop-color="#0078D4"/><stop offset=".848" stop-color="#4DC2EB"/></linearGradient><linearGradient id="I" x1="160.437" x2="159.541" y1="267.572" y2="235.153" gradientUnits="userSpaceOnUse"><stop stop-color="#0078D4"/><stop offset=".848" stop-color="#4DC2EB"/></linearGradient><linearGradient id="J" x1="160.335" x2="159.439" y1="267.137" y2="234.717" gradientUnits="userSpaceOnUse"><stop stop-color="#0078D4"/><stop offset=".848" stop-color="#4DC2EB"/></linearGradient><linearGradient id="K" x1="160.232" x2="159.337" y1="266.701" y2="234.281" gradientUnits="userSpaceOnUse"><stop stop-color="#0078D4"/><stop offset=".848" stop-color="#4DC2EB"/></linearGradient><linearGradient id="L" x1="160.13" x2="159.234" y1="266.265" y2="233.845" gradientUnits="userSpaceOnUse"><stop stop-color="#0078D4"/><stop offset=".848" stop-color="#4DC2EB"/></linearGradient><linearGradient id="M" x1="160.028" x2="159.132" y1="265.829" y2="233.409" gradientUnits="userSpaceOnUse"><stop stop-color="#0078D4"/><stop offset=".848" stop-color="#4DC2EB"/></linearGradient><linearGradient id="N" x1="159.926" x2="159.03" y1="265.393" y2="232.974" gradientUnits="userSpaceOnUse"><stop stop-color="#0078D4"/><stop offset=".848" stop-color="#4DC2EB"/></linearGradient><linearGradient id="O" x1="159.823" x2="158.928" y1="264.958" y2="232.538" gradientUnits="userSpaceOnUse"><stop stop-color="#0078D4"/><stop offset=".848" stop-color="#4DC2EB"/></linearGradient><linearGradient id="P" x1="174.674" x2="174.365" y1="271.362" y2="225.668" gradientUnits="userSpaceOnUse"><stop stop-color="#0078D4"/><stop offset=".848" stop-color="#4DC2EB"/></linearGradient><linearGradient id="Q" x1="174.65" x2="174.342" y1="271.118" y2="225.424" gradientUnits="userSpaceOnUse"><stop stop-color="#0078D4"/><stop offset=".848" stop-color="#4DC2EB"/></linearGradient><linearGradient id="R" x1="174.625" x2="174.317" y1="270.662" y2="224.968" gradientUnits="userSpaceOnUse"><stop stop-color="#0078D4"/><stop offset=".848" stop-color="#4DC2EB"/></linearGradient><linearGradient id="S" x1="174.6" x2="174.291" y1="270.206" y2="224.511" gradientUnits="userSpaceOnUse"><stop stop-color="#0078D4"/><stop offset=".848" stop-color="#4DC2EB"/></linearGradient><linearGradient id="T" x1="174.575" x2="174.266" y1="269.749" y2="224.055" gradientUnits="userSpaceOnUse"><stop stop-color="#0078D4"/><stop offset=".848" stop-color="#4DC2EB"/></linearGradient><linearGradient id="U" x1="174.55" x2="174.241" y1="269.293" y2="223.599" gradientUnits="userSpaceOnUse"><stop stop-color="#0078D4"/><stop offset=".848" stop-color="#4DC2EB"/></linearGradient><linearGradient id="V" x1="174.525" x2="174.216" y1="268.837" y2="223.142" gradientUnits="userSpaceOnUse"><stop stop-color="#0078D4"/><stop offset=".848" stop-color="#4DC2EB"/></linearGradient><linearGradient id="W" x1="174.5" x2="174.191" y1="268.38" y2="222.686" gradientUnits="userSpaceOnUse"><stop stop-color="#0078D4"/><stop offset=".848" stop-color="#4DC2EB"/></linearGradient><linearGradient id="X" x1="188.431" x2="175.937" y1="276.141" y2="263.646" gradientUnits="userSpaceOnUse"><stop stop-color="#0078D4"/><stop offset=".848" stop-color="#4DC2EB"/></linearGradient><linearGradient id="Y" x1="188.301" x2="175.729" y1="277.812" y2="265.24" gradientUnits="userSpaceOnUse"><stop stop-color="#0078D4"/><stop offset=".848" stop-color="#4DC2EB"/></linearGradient><linearGradient id="Z" x1="188.581" x2="176.088" y1="275.073" y2="262.58" gradientUnits="userSpaceOnUse"><stop stop-color="#0078D4"/><stop offset=".848" stop-color="#4DC2EB"/></linearGradient><linearGradient id="aa" x1="188.283" x2="175.787" y1="277.208" y2="264.713" gradientUnits="userSpaceOnUse"><stop stop-color="#0078D4"/><stop offset=".848" stop-color="#4DC2EB"/></linearGradient><linearGradient id="ab" x1="188.356" x2="175.862" y1="276.674" y2="264.179" gradientUnits="userSpaceOnUse"><stop stop-color="#0078D4"/><stop offset=".848" stop-color="#4DC2EB"/></linearGradient><linearGradient id="ac" x1="188.216" x2="176.647" y1="273.484" y2="261.915" gradientUnits="userSpaceOnUse"><stop stop-color="#0078D4"/><stop offset=".848" stop-color="#4DC2EB"/></linearGradient><linearGradient id="ad" x1="188.655" x2="176.164" y1="274.539" y2="262.048" gradientUnits="userSpaceOnUse"><stop stop-color="#0078D4"/><stop offset=".848" stop-color="#4DC2EB"/></linearGradient><linearGradient id="ae" x1="188.505" x2="176.013" y1="275.606" y2="263.114" gradientUnits="userSpaceOnUse"><stop stop-color="#0078D4"/><stop offset=".848" stop-color="#4DC2EB"/></linearGradient><linearGradient id="af" x1="184.914" x2="172.938" y1="278.231" y2="266.255" gradientUnits="userSpaceOnUse"><stop stop-color="#0078D4"/><stop offset=".848" stop-color="#4DC2EB"/></linearGradient><linearGradient id="ag" x1="184.576" x2="172.542" y1="279.695" y2="267.66" gradientUnits="userSpaceOnUse"><stop stop-color="#0078D4"/><stop offset=".848" stop-color="#4DC2EB"/></linearGradient><linearGradient id="ah" x1="188.301" x2="175.729" y1="277.812" y2="265.24" gradientUnits="userSpaceOnUse"><stop stop-color="#0078D4"/><stop offset=".848" stop-color="#4DC2EB"/></linearGradient><linearGradient id="ai" x1="185.179" x2="173.203" y1="277.279" y2="265.303" gradientUnits="userSpaceOnUse"><stop stop-color="#0078D4"/><stop offset=".848" stop-color="#4DC2EB"/></linearGradient><linearGradient id="aj" x1="184.65" x2="172.673" y1="279.183" y2="267.206" gradientUnits="userSpaceOnUse"><stop stop-color="#0078D4"/><stop offset=".848" stop-color="#4DC2EB"/></linearGradient><linearGradient id="ak" x1="184.782" x2="172.805" y1="278.707" y2="266.731" gradientUnits="userSpaceOnUse"><stop stop-color="#0078D4"/><stop offset=".848" stop-color="#4DC2EB"/></linearGradient><linearGradient id="al" x1="185.177" x2="174.086" y1="276.052" y2="264.961" gradientUnits="userSpaceOnUse"><stop stop-color="#0078D4"/><stop offset=".848" stop-color="#4DC2EB"/></linearGradient><linearGradient id="am" x1="185.311" x2="173.337" y1="276.802" y2="264.829" gradientUnits="userSpaceOnUse"><stop stop-color="#0078D4"/><stop offset=".848" stop-color="#4DC2EB"/></linearGradient><linearGradient id="an" x1="185.046" x2="173.071" y1="277.754" y2="265.78" gradientUnits="userSpaceOnUse"><stop stop-color="#0078D4"/><stop offset=".848" stop-color="#4DC2EB"/></linearGradient><linearGradient id="ao" x1="191.709" x2="189.188" y1="270.05" y2="255.343" gradientUnits="userSpaceOnUse"><stop stop-color="#0078D4"/><stop offset=".848" stop-color="#4DC2EB"/></linearGradient><linearGradient id="ap" x1="196.393" x2="193.865" y1="269.746" y2="254.995" gradientUnits="userSpaceOnUse"><stop stop-color="#0078D4"/><stop offset=".848" stop-color="#4DC2EB"/></linearGradient><linearGradient id="aq" x1="188.542" x2="186.022" y1="270.269" y2="255.565" gradientUnits="userSpaceOnUse"><stop stop-color="#0078D4"/><stop offset=".848" stop-color="#4DC2EB"/></linearGradient><linearGradient id="ar" x1="194.874" x2="192.352" y1="269.831" y2="255.121" gradientUnits="userSpaceOnUse"><stop stop-color="#0078D4"/><stop offset=".848" stop-color="#4DC2EB"/></linearGradient><linearGradient id="as" x1="193.291" x2="190.77" y1="269.94" y2="255.232" gradientUnits="userSpaceOnUse"><stop stop-color="#0078D4"/><stop offset=".848" stop-color="#4DC2EB"/></linearGradient><linearGradient id="at" x1="185.321" x2="182.85" y1="270.41" y2="255.996" gradientUnits="userSpaceOnUse"><stop stop-color="#0078D4"/><stop offset=".848" stop-color="#4DC2EB"/></linearGradient><linearGradient id="au" x1="186.96" x2="184.439" y1="270.378" y2="255.676" gradientUnits="userSpaceOnUse"><stop stop-color="#0078D4"/><stop offset=".848" stop-color="#4DC2EB"/></linearGradient><linearGradient id="av" x1="190.126" x2="187.605" y1="270.159" y2="255.454" gradientUnits="userSpaceOnUse"><stop stop-color="#0078D4"/><stop offset=".848" stop-color="#4DC2EB"/></linearGradient><linearGradient id="aw" x1="190.597" x2="188.209" y1="269.169" y2="255.244" gradientUnits="userSpaceOnUse"><stop stop-color="#0078D4"/><stop offset=".848" stop-color="#4DC2EB"/></linearGradient><linearGradient id="ax" x1="195.258" x2="192.865" y1="268.73" y2="254.772" gradientUnits="userSpaceOnUse"><stop stop-color="#0078D4"/><stop offset=".848" stop-color="#4DC2EB"/></linearGradient><linearGradient id="ay" x1="187.444" x2="185.057" y1="269.468" y2="255.545" gradientUnits="userSpaceOnUse"><stop stop-color="#0078D4"/><stop offset=".848" stop-color="#4DC2EB"/></linearGradient><linearGradient id="az" x1="193.748" x2="191.36" y1="268.871" y2="254.944" gradientUnits="userSpaceOnUse"><stop stop-color="#0078D4"/><stop offset=".848" stop-color="#4DC2EB"/></linearGradient><linearGradient id="aA" x1="192.172" x2="189.785" y1="269.02" y2="255.094" gradientUnits="userSpaceOnUse"><stop stop-color="#0078D4"/><stop offset=".848" stop-color="#4DC2EB"/></linearGradient><linearGradient id="aB" x1="184.257" x2="181.916" y1="269.814" y2="256.157" gradientUnits="userSpaceOnUse"><stop stop-color="#0078D4"/><stop offset=".848" stop-color="#4DC2EB"/></linearGradient><linearGradient id="aC" x1="185.868" x2="183.482" y1="269.618" y2="255.696" gradientUnits="userSpaceOnUse"><stop stop-color="#0078D4"/><stop offset=".848" stop-color="#4DC2EB"/></linearGradient><linearGradient id="aD" x1="189.02" x2="186.633" y1="269.319" y2="255.395" gradientUnits="userSpaceOnUse"><stop stop-color="#0078D4"/><stop offset=".848" stop-color="#4DC2EB"/></linearGradient><linearGradient id="aE" x1="172.006" x2="172.006" y1="90.969" y2="129.494" gradientUnits="userSpaceOnUse"><stop stop-color="#4DC2EB"/><stop offset=".585" stop-color="#0078D4"/></linearGradient><linearGradient id="aF" x1="187.529" x2="187.529" y1="120.109" y2="86.278" gradientUnits="userSpaceOnUse"><stop offset=".019" stop-color="#0078D4"/><stop offset=".257" stop-color="#22A7E6"/><stop offset=".581" stop-color="#50E6FF"/></linearGradient><linearGradient id="aG" x1="193.291" x2="181.495" y1="107.162" y2="121.039" gradientUnits="userSpaceOnUse"><stop offset=".019" stop-color="#0078D4"/><stop offset=".861" stop-color="#2BB2EB"/><stop offset="1" stop-color="#3FCEF6"/></linearGradient><linearGradient id="aH" x1="187.529" x2="187.529" y1="103.582" y2="118.685" gradientUnits="userSpaceOnUse"><stop offset=".019" stop-color="#0078D4"/><stop offset=".861" stop-color="#2BB2EB"/><stop offset="1" stop-color="#3FCEF6"/></linearGradient><linearGradient id="aI" x1="107.122" x2="92.074" y1="92.617" y2="109.666" gradientUnits="userSpaceOnUse"><stop/><stop offset=".822" stop-opacity="0"/></linearGradient><linearGradient id="aJ" x1="186.286" x2="186.286" y1="246.997" y2="230.179" gradientUnits="userSpaceOnUse"><stop stop-color="#0078D4"/><stop offset=".594" stop-color="#4DC2EB"/><stop offset="1" stop-color="#B3E5F6"/></linearGradient><linearGradient id="aK" x1="187.779" x2="187.779" y1="246.997" y2="230.179" gradientUnits="userSpaceOnUse"><stop stop-color="#0078D4"/><stop offset=".594" stop-color="#4DC2EB"/><stop offset="1" stop-color="#B3E5F6"/></linearGradient><linearGradient id="aL" x1="189.272" x2="189.272" y1="246.997" y2="230.179" gradientUnits="userSpaceOnUse"><stop stop-color="#0078D4"/><stop offset=".594" stop-color="#4DC2EB"/><stop offset="1" stop-color="#B3E5F6"/></linearGradient><linearGradient id="aM" x1="190.765" x2="190.765" y1="246.997" y2="230.179" gradientUnits="userSpaceOnUse"><stop stop-color="#0078D4"/><stop offset=".594" stop-color="#4DC2EB"/><stop offset="1" stop-color="#B3E5F6"/></linearGradient><linearGradient id="aN" x1="192.258" x2="192.258" y1="246.997" y2="230.179" gradientUnits="userSpaceOnUse"><stop stop-color="#0078D4"/><stop offset=".594" stop-color="#4DC2EB"/><stop offset="1" stop-color="#B3E5F6"/></linearGradient><linearGradient id="aO" x1="193.751" x2="193.751" y1="246.997" y2="230.179" gradientUnits="userSpaceOnUse"><stop stop-color="#0078D4"/><stop offset=".594" stop-color="#4DC2EB"/><stop offset="1" stop-color="#B3E5F6"/></linearGradient><linearGradient id="aP" x1="195.244" x2="195.244" y1="246.997" y2="230.179" gradientUnits="userSpaceOnUse"><stop stop-color="#0078D4"/><stop offset=".594" stop-color="#4DC2EB"/><stop offset="1" stop-color="#B3E5F6"/></linearGradient><linearGradient id="aQ" x1="196.737" x2="196.737" y1="246.997" y2="230.179" gradientUnits="userSpaceOnUse"><stop stop-color="#0078D4"/><stop offset=".594" stop-color="#4DC2EB"/><stop offset="1" stop-color="#B3E5F6"/></linearGradient><linearGradient id="aR" x1="186.276" x2="186.276" y1="246.997" y2="230.179" gradientUnits="userSpaceOnUse"><stop stop-color="#0078D4"/><stop offset=".594" stop-color="#4DC2EB"/><stop offset="1" stop-color="#B3E5F6"/></linearGradient><linearGradient id="aS" x1="187.769" x2="187.769" y1="246.997" y2="230.179" gradientUnits="userSpaceOnUse"><stop stop-color="#0078D4"/><stop offset=".594" stop-color="#4DC2EB"/><stop offset="1" stop-color="#B3E5F6"/></linearGradient><linearGradient id="aT" x1="189.262" x2="189.262" y1="246.997" y2="230.179" gradientUnits="userSpaceOnUse"><stop stop-color="#0078D4"/><stop offset=".594" stop-color="#4DC2EB"/><stop offset="1" stop-color="#B3E5F6"/></linearGradient><linearGradient id="aU" x1="190.755" x2="190.755" y1="246.997" y2="230.179" gradientUnits="userSpaceOnUse"><stop stop-color="#0078D4"/><stop offset=".594" stop-color="#4DC2EB"/><stop offset="1" stop-color="#B3E5F6"/></linearGradient><linearGradient id="aV" x1="192.248" x2="192.248" y1="246.997" y2="230.179" gradientUnits="userSpaceOnUse"><stop stop-color="#0078D4"/><stop offset=".594" stop-color="#4DC2EB"/><stop offset="1" stop-color="#B3E5F6"/></linearGradient><linearGradient id="aW" x1="193.741" x2="193.741" y1="246.997" y2="230.179" gradientUnits="userSpaceOnUse"><stop stop-color="#0078D4"/><stop offset=".594" stop-color="#4DC2EB"/><stop offset="1" stop-color="#B3E5F6"/></linearGradient><linearGradient id="aX" x1="195.234" x2="195.234" y1="246.997" y2="230.179" gradientUnits="userSpaceOnUse"><stop stop-color="#0078D4"/><stop offset=".594" stop-color="#4DC2EB"/><stop offset="1" stop-color="#B3E5F6"/></linearGradient><linearGradient id="aY" x1="196.728" x2="196.728" y1="246.997" y2="230.179" gradientUnits="userSpaceOnUse"><stop stop-color="#0078D4"/><stop offset=".594" stop-color="#4DC2EB"/><stop offset="1" stop-color="#B3E5F6"/></linearGradient><linearGradient id="aZ" x1="186.266" x2="186.266" y1="246.997" y2="230.179" gradientUnits="userSpaceOnUse"><stop stop-color="#0078D4"/><stop offset=".594" stop-color="#4DC2EB"/><stop offset="1" stop-color="#B3E5F6"/></linearGradient><linearGradient id="ba" x1="187.759" x2="187.759" y1="246.997" y2="230.179" gradientUnits="userSpaceOnUse"><stop stop-color="#0078D4"/><stop offset=".594" stop-color="#4DC2EB"/><stop offset="1" stop-color="#B3E5F6"/></linearGradient><linearGradient id="bb" x1="189.253" x2="189.253" y1="246.997" y2="230.179" gradientUnits="userSpaceOnUse"><stop stop-color="#0078D4"/><stop offset=".594" stop-color="#4DC2EB"/><stop offset="1" stop-color="#B3E5F6"/></linearGradient><linearGradient id="bc" x1="190.745" x2="190.745" y1="246.997" y2="230.179" gradientUnits="userSpaceOnUse"><stop stop-color="#0078D4"/><stop offset=".594" stop-color="#4DC2EB"/><stop offset="1" stop-color="#B3E5F6"/></linearGradient><linearGradient id="bd" x1="192.239" x2="192.239" y1="246.997" y2="230.179" gradientUnits="userSpaceOnUse"><stop stop-color="#0078D4"/><stop offset=".594" stop-color="#4DC2EB"/><stop offset="1" stop-color="#B3E5F6"/></linearGradient><linearGradient id="be" x1="193.732" x2="193.732" y1="246.997" y2="230.179" gradientUnits="userSpaceOnUse"><stop stop-color="#0078D4"/><stop offset=".594" stop-color="#4DC2EB"/><stop offset="1" stop-color="#B3E5F6"/></linearGradient><linearGradient id="bf" x1="195.225" x2="195.225" y1="246.997" y2="230.179" gradientUnits="userSpaceOnUse"><stop stop-color="#0078D4"/><stop offset=".594" stop-color="#4DC2EB"/><stop offset="1" stop-color="#B3E5F6"/></linearGradient><linearGradient id="bg" x1="196.718" x2="196.718" y1="246.997" y2="230.179" gradientUnits="userSpaceOnUse"><stop stop-color="#0078D4"/><stop offset=".594" stop-color="#4DC2EB"/><stop offset="1" stop-color="#B3E5F6"/></linearGradient><linearGradient id="bh" x1="186.257" x2="186.257" y1="246.997" y2="230.179" gradientUnits="userSpaceOnUse"><stop stop-color="#0078D4"/><stop offset=".594" stop-color="#4DC2EB"/><stop offset="1" stop-color="#B3E5F6"/></linearGradient><linearGradient id="bi" x1="187.749" x2="187.749" y1="246.997" y2="230.179" gradientUnits="userSpaceOnUse"><stop stop-color="#0078D4"/><stop offset=".594" stop-color="#4DC2EB"/><stop offset="1" stop-color="#B3E5F6"/></linearGradient><linearGradient id="bj" x1="189.243" x2="189.243" y1="246.997" y2="230.179" gradientUnits="userSpaceOnUse"><stop stop-color="#0078D4"/><stop offset=".594" stop-color="#4DC2EB"/><stop offset="1" stop-color="#B3E5F6"/></linearGradient><linearGradient id="bk" x1="190.736" x2="190.736" y1="246.997" y2="230.179" gradientUnits="userSpaceOnUse"><stop stop-color="#0078D4"/><stop offset=".594" stop-color="#4DC2EB"/><stop offset="1" stop-color="#B3E5F6"/></linearGradient><linearGradient id="bl" x1="192.229" x2="192.229" y1="246.997" y2="230.179" gradientUnits="userSpaceOnUse"><stop stop-color="#0078D4"/><stop offset=".594" stop-color="#4DC2EB"/><stop offset="1" stop-color="#B3E5F6"/></linearGradient><linearGradient id="bm" x1="193.722" x2="193.722" y1="246.997" y2="230.179" gradientUnits="userSpaceOnUse"><stop stop-color="#0078D4"/><stop offset=".594" stop-color="#4DC2EB"/><stop offset="1" stop-color="#B3E5F6"/></linearGradient><linearGradient id="bn" x1="195.215" x2="195.215" y1="246.997" y2="230.179" gradientUnits="userSpaceOnUse"><stop stop-color="#0078D4"/><stop offset=".594" stop-color="#4DC2EB"/><stop offset="1" stop-color="#B3E5F6"/></linearGradient><linearGradient id="bo" x1="196.708" x2="196.708" y1="246.997" y2="230.179" gradientUnits="userSpaceOnUse"><stop stop-color="#0078D4"/><stop offset=".594" stop-color="#4DC2EB"/><stop offset="1" stop-color="#B3E5F6"/></linearGradient><linearGradient id="bp" x1="186.247" x2="186.247" y1="246.997" y2="230.179" gradientUnits="userSpaceOnUse"><stop stop-color="#0078D4"/><stop offset=".594" stop-color="#4DC2EB"/><stop offset="1" stop-color="#B3E5F6"/></linearGradient><linearGradient id="bq" x1="187.74" x2="187.74" y1="246.997" y2="230.179" gradientUnits="userSpaceOnUse"><stop stop-color="#0078D4"/><stop offset=".594" stop-color="#4DC2EB"/><stop offset="1" stop-color="#B3E5F6"/></linearGradient><linearGradient id="br" x1="189.233" x2="189.233" y1="246.997" y2="230.179" gradientUnits="userSpaceOnUse"><stop stop-color="#0078D4"/><stop offset=".594" stop-color="#4DC2EB"/><stop offset="1" stop-color="#B3E5F6"/></linearGradient><linearGradient id="bs" x1="190.726" x2="190.726" y1="246.997" y2="230.179" gradientUnits="userSpaceOnUse"><stop stop-color="#0078D4"/><stop offset=".594" stop-color="#4DC2EB"/><stop offset="1" stop-color="#B3E5F6"/></linearGradient><linearGradient id="bt" x1="192.219" x2="192.219" y1="246.997" y2="230.179" gradientUnits="userSpaceOnUse"><stop stop-color="#0078D4"/><stop offset=".594" stop-color="#4DC2EB"/><stop offset="1" stop-color="#B3E5F6"/></linearGradient><linearGradient id="bu" x1="193.712" x2="193.712" y1="246.997" y2="230.179" gradientUnits="userSpaceOnUse"><stop stop-color="#0078D4"/><stop offset=".594" stop-color="#4DC2EB"/><stop offset="1" stop-color="#B3E5F6"/></linearGradient><linearGradient id="bv" x1="195.206" x2="195.206" y1="246.997" y2="230.179" gradientUnits="userSpaceOnUse"><stop stop-color="#0078D4"/><stop offset=".594" stop-color="#4DC2EB"/><stop offset="1" stop-color="#B3E5F6"/></linearGradient><linearGradient id="bw" x1="196.699" x2="196.699" y1="246.997" y2="230.179" gradientUnits="userSpaceOnUse"><stop stop-color="#0078D4"/><stop offset=".594" stop-color="#4DC2EB"/><stop offset="1" stop-color="#B3E5F6"/></linearGradient><linearGradient id="bx" x1="186.237" x2="186.237" y1="246.997" y2="230.179" gradientUnits="userSpaceOnUse"><stop stop-color="#0078D4"/><stop offset=".594" stop-color="#4DC2EB"/><stop offset="1" stop-color="#B3E5F6"/></linearGradient><linearGradient id="by" x1="187.73" x2="187.73" y1="246.997" y2="230.179" gradientUnits="userSpaceOnUse"><stop stop-color="#0078D4"/><stop offset=".594" stop-color="#4DC2EB"/><stop offset="1" stop-color="#B3E5F6"/></linearGradient><linearGradient id="bz" x1="189.223" x2="189.223" y1="246.997" y2="230.179" gradientUnits="userSpaceOnUse"><stop stop-color="#0078D4"/><stop offset=".594" stop-color="#4DC2EB"/><stop offset="1" stop-color="#B3E5F6"/></linearGradient><linearGradient id="bA" x1="190.716" x2="190.716" y1="246.997" y2="230.179" gradientUnits="userSpaceOnUse"><stop stop-color="#0078D4"/><stop offset=".594" stop-color="#4DC2EB"/><stop offset="1" stop-color="#B3E5F6"/></linearGradient><linearGradient id="bB" x1="192.21" x2="192.21" y1="246.997" y2="230.179" gradientUnits="userSpaceOnUse"><stop stop-color="#0078D4"/><stop offset=".594" stop-color="#4DC2EB"/><stop offset="1" stop-color="#B3E5F6"/></linearGradient><linearGradient id="bC" x1="193.703" x2="193.703" y1="246.997" y2="230.179" gradientUnits="userSpaceOnUse"><stop stop-color="#0078D4"/><stop offset=".594" stop-color="#4DC2EB"/><stop offset="1" stop-color="#B3E5F6"/></linearGradient><linearGradient id="bD" x1="195.196" x2="195.196" y1="246.997" y2="230.179" gradientUnits="userSpaceOnUse"><stop stop-color="#0078D4"/><stop offset=".594" stop-color="#4DC2EB"/><stop offset="1" stop-color="#B3E5F6"/></linearGradient><linearGradient id="bE" x1="196.689" x2="196.689" y1="246.997" y2="230.179" gradientUnits="userSpaceOnUse"><stop stop-color="#0078D4"/><stop offset=".594" stop-color="#4DC2EB"/><stop offset="1" stop-color="#B3E5F6"/></linearGradient></defs></svg>